# Wavefront OBJ Harbor Wall
mtllib harbor_wall_corner.mtl

v 0.0000 -0.3500 2.0000
v 7.5000 -0.3500 2.0000
v 7.5000 0.0000 2.0000
v 0.0000 0.0000 2.0000
v 7.5000 -0.3500 2.0000
v 7.8500 -0.3500 2.0000
v 7.8500 0.0000 2.0000
v 7.5000 0.0000 2.0000
v 7.5000 0.0000 2.0000
v 7.8500 0.0000 2.0000
v 7.8500 12.0000 2.0000
v 7.5000 12.0000 2.0000
v 7.8500 -0.3500 1.8000
v 7.8500 -0.3500 2.0000
v 0.0000 -0.3500 2.0000
v 0.0000 -0.3500 1.8000
v 7.8500 12.0000 1.8000
v 7.8500 12.0000 2.0000
v 7.8500 -0.3500 2.0000
v 7.8500 -0.3500 1.8000
v 0.0000 -4.5000 1.8000
v 7.8500 -4.5000 1.8000
v 7.8500 -0.3500 1.8000
v 0.0000 -0.3500 1.8000
v 7.8500 -0.3500 1.8000
v 12.0000 -0.3500 1.8000
v 12.0000 12.0000 1.8000
v 7.8500 12.0000 1.8000
v 7.8500 -4.5000 1.8000
v 12.0000 -4.5000 1.8000
v 12.0000 -0.3500 1.8000
v 7.8500 -0.3500 1.8000
v 0.0000 0.0000 0.6000
v 0.0000 0.0000 2.0000
v 7.5000 0.0000 2.0000
v 7.5000 0.0000 0.6000
v 0.0000 0.0000 -1.5000
v 0.0000 0.0000 0.6000
v 7.5000 0.0000 0.6000
v 7.5000 0.0000 -1.5000
v 0.0000 0.0000 -16.2000
v 0.0000 0.0000 -1.5000
v 7.5000 0.0000 -1.5000
v 7.5000 0.0000 -16.2000
v 7.5000 12.0000 0.6000
v 7.5000 0.0000 0.6000
v 7.5000 0.0000 2.0000
v 7.5000 12.0000 2.0000
v 7.5000 12.0000 -1.5000
v 7.5000 0.0000 -1.5000
v 7.5000 0.0000 0.6000
v 7.5000 12.0000 0.6000
v 7.5000 12.0000 -16.2000
v 7.5000 0.0000 -16.2000
v 7.5000 0.0000 -1.5000
v 7.5000 12.0000 -1.5000
v 12.0000 -4.5000 -16.2000
v 12.0000 -4.5000 1.8000
v 0.0000 -4.5000 1.8000
v 0.0000 -4.5000 -16.2000
v 12.0000 -4.5000 -16.2000
v 12.0000 12.0000 -16.2000
v 12.0000 12.0000 1.8000
v 12.0000 -4.5000 1.8000
v 0.0000 -4.5000 -16.2000
v 0.0000 -4.5000 1.8000
v 0.0000 0.0000 2.0000
v 0.0000 0.0000 -16.2000
v 7.5000 12.0000 -16.2000
v 7.5000 12.0000 2.0000
v 12.0000 12.0000 1.8000
v 12.0000 12.0000 -16.2000
v 0.0000 0.0000 -16.2000
v 7.5000 0.0000 -16.2000
v 7.5000 -4.5000 -16.2000
v 0.0000 -4.5000 -16.2000
v 7.5000 12.0000 -16.2000
v 12.0000 12.0000 -16.2000
v 12.0000 -4.5000 -16.2000
v 7.5000 -4.5000 -16.2000
v 4.7000 0.0000 -0.6000
v 4.7000 0.0000 0.6000
v 4.7228 0.1148 0.6000
v 4.7228 0.1148 -0.6000
v 4.7228 0.1148 -0.6000
v 4.7228 0.1148 0.6000
v 4.7879 0.2121 0.6000
v 4.7879 0.2121 -0.6000
v 4.7879 0.2121 -0.6000
v 4.7879 0.2121 0.6000
v 4.8852 0.2772 0.6000
v 4.8852 0.2772 -0.6000
v 4.8852 0.2772 -0.6000
v 4.8852 0.2772 0.6000
v 5.0000 0.3000 0.6000
v 5.0000 0.3000 -0.6000
v 5.0000 0.3000 -0.6000
v 5.0000 0.3000 0.6000
v 5.1148 0.2772 0.6000
v 5.1148 0.2772 -0.6000
v 5.1148 0.2772 -0.6000
v 5.1148 0.2772 0.6000
v 5.2121 0.2121 0.6000
v 5.2121 0.2121 -0.6000
v 5.2121 0.2121 -0.6000
v 5.2121 0.2121 0.6000
v 5.2772 0.1148 0.6000
v 5.2772 0.1148 -0.6000
v 5.2772 0.1148 -0.6000
v 5.2772 0.1148 0.6000
v 5.3000 0.0000 0.6000
v 5.3000 0.0000 -0.6000
v 5.0000 0.0000 0.6000
v 4.7228 0.1148 0.6000
v 4.7000 0.0000 0.6000
v 5.0000 0.0000 -0.6000
v 4.7000 0.0000 -0.6000
v 4.7228 0.1148 -0.6000
v 5.0000 0.0000 0.6000
v 4.7879 0.2121 0.6000
v 4.7228 0.1148 0.6000
v 5.0000 0.0000 -0.6000
v 4.7228 0.1148 -0.6000
v 4.7879 0.2121 -0.6000
v 5.0000 0.0000 0.6000
v 4.8852 0.2772 0.6000
v 4.7879 0.2121 0.6000
v 5.0000 0.0000 -0.6000
v 4.7879 0.2121 -0.6000
v 4.8852 0.2772 -0.6000
v 5.0000 0.0000 0.6000
v 5.0000 0.3000 0.6000
v 4.8852 0.2772 0.6000
v 5.0000 0.0000 -0.6000
v 4.8852 0.2772 -0.6000
v 5.0000 0.3000 -0.6000
v 5.0000 0.0000 0.6000
v 5.1148 0.2772 0.6000
v 5.0000 0.3000 0.6000
v 5.0000 0.0000 -0.6000
v 5.0000 0.3000 -0.6000
v 5.1148 0.2772 -0.6000
v 5.0000 0.0000 0.6000
v 5.2121 0.2121 0.6000
v 5.1148 0.2772 0.6000
v 5.0000 0.0000 -0.6000
v 5.1148 0.2772 -0.6000
v 5.2121 0.2121 -0.6000
v 5.0000 0.0000 0.6000
v 5.2772 0.1148 0.6000
v 5.2121 0.2121 0.6000
v 5.0000 0.0000 -0.6000
v 5.2121 0.2121 -0.6000
v 5.2772 0.1148 -0.6000
v 5.0000 0.0000 0.6000
v 5.3000 0.0000 0.6000
v 5.2772 0.1148 0.6000
v 5.0000 0.0000 -0.6000
v 5.2772 0.1148 -0.6000
v 5.3000 0.0000 -0.6000
v 7.5000 4.7000 -0.6000
v 7.5000 4.7000 0.6000
v 7.3852 4.7228 0.6000
v 7.3852 4.7228 -0.6000
v 7.3852 4.7228 -0.6000
v 7.3852 4.7228 0.6000
v 7.2879 4.7879 0.6000
v 7.2879 4.7879 -0.6000
v 7.2879 4.7879 -0.6000
v 7.2879 4.7879 0.6000
v 7.2228 4.8852 0.6000
v 7.2228 4.8852 -0.6000
v 7.2228 4.8852 -0.6000
v 7.2228 4.8852 0.6000
v 7.2000 5.0000 0.6000
v 7.2000 5.0000 -0.6000
v 7.2000 5.0000 -0.6000
v 7.2000 5.0000 0.6000
v 7.2228 5.1148 0.6000
v 7.2228 5.1148 -0.6000
v 7.2228 5.1148 -0.6000
v 7.2228 5.1148 0.6000
v 7.2879 5.2121 0.6000
v 7.2879 5.2121 -0.6000
v 7.2879 5.2121 -0.6000
v 7.2879 5.2121 0.6000
v 7.3852 5.2772 0.6000
v 7.3852 5.2772 -0.6000
v 7.3852 5.2772 -0.6000
v 7.3852 5.2772 0.6000
v 7.5000 5.3000 0.6000
v 7.5000 5.3000 -0.6000
v 7.5000 5.0000 0.6000
v 7.3852 4.7228 0.6000
v 7.5000 4.7000 0.6000
v 7.5000 5.0000 -0.6000
v 7.5000 4.7000 -0.6000
v 7.3852 4.7228 -0.6000
v 7.5000 5.0000 0.6000
v 7.2879 4.7879 0.6000
v 7.3852 4.7228 0.6000
v 7.5000 5.0000 -0.6000
v 7.3852 4.7228 -0.6000
v 7.2879 4.7879 -0.6000
v 7.5000 5.0000 0.6000
v 7.2228 4.8852 0.6000
v 7.2879 4.7879 0.6000
v 7.5000 5.0000 -0.6000
v 7.2879 4.7879 -0.6000
v 7.2228 4.8852 -0.6000
v 7.5000 5.0000 0.6000
v 7.2000 5.0000 0.6000
v 7.2228 4.8852 0.6000
v 7.5000 5.0000 -0.6000
v 7.2228 4.8852 -0.6000
v 7.2000 5.0000 -0.6000
v 7.5000 5.0000 0.6000
v 7.2228 5.1148 0.6000
v 7.2000 5.0000 0.6000
v 7.5000 5.0000 -0.6000
v 7.2000 5.0000 -0.6000
v 7.2228 5.1148 -0.6000
v 7.5000 5.0000 0.6000
v 7.2879 5.2121 0.6000
v 7.2228 5.1148 0.6000
v 7.5000 5.0000 -0.6000
v 7.2228 5.1148 -0.6000
v 7.2879 5.2121 -0.6000
v 7.5000 5.0000 0.6000
v 7.3852 5.2772 0.6000
v 7.2879 5.2121 0.6000
v 7.5000 5.0000 -0.6000
v 7.2879 5.2121 -0.6000
v 7.3852 5.2772 -0.6000
v 7.5000 5.0000 0.6000
v 7.5000 5.3000 0.6000
v 7.3852 5.2772 0.6000
v 7.5000 5.0000 -0.6000
v 7.3852 5.2772 -0.6000
v 7.5000 5.3000 -0.6000
v 5.3500 -0.6500 1.8000
v 5.3031 -0.4750 1.8000
v 5.3031 -0.4750 1.8800
v 5.3500 -0.6500 1.8800
v 5.3031 -0.4750 1.8000
v 5.1750 -0.3469 1.8000
v 5.1750 -0.3469 1.8800
v 5.3031 -0.4750 1.8800
v 5.1750 -0.3469 1.8000
v 5.0000 -0.3000 1.8000
v 5.0000 -0.3000 1.8800
v 5.1750 -0.3469 1.8800
v 5.0000 -0.3000 1.8000
v 4.8250 -0.3469 1.8000
v 4.8250 -0.3469 1.8800
v 5.0000 -0.3000 1.8800
v 4.8250 -0.3469 1.8000
v 4.6969 -0.4750 1.8000
v 4.6969 -0.4750 1.8800
v 4.8250 -0.3469 1.8800
v 4.6969 -0.4750 1.8000
v 4.6500 -0.6500 1.8000
v 4.6500 -0.6500 1.8800
v 4.6969 -0.4750 1.8800
v 4.6500 -0.6500 1.8000
v 4.6969 -0.8250 1.8000
v 4.6969 -0.8250 1.8800
v 4.6500 -0.6500 1.8800
v 4.6969 -0.8250 1.8000
v 4.8250 -0.9531 1.8000
v 4.8250 -0.9531 1.8800
v 4.6969 -0.8250 1.8800
v 4.8250 -0.9531 1.8000
v 5.0000 -1.0000 1.8000
v 5.0000 -1.0000 1.8800
v 4.8250 -0.9531 1.8800
v 5.0000 -1.0000 1.8000
v 5.1750 -0.9531 1.8000
v 5.1750 -0.9531 1.8800
v 5.0000 -1.0000 1.8800
v 5.1750 -0.9531 1.8000
v 5.3031 -0.8250 1.8000
v 5.3031 -0.8250 1.8800
v 5.1750 -0.9531 1.8800
v 5.3031 -0.8250 1.8000
v 5.3031 -0.8250 1.8800
v 5.3500 -0.6500 1.8800
v 5.3500 -0.6500 1.8000
v 5.0000 -0.6500 1.8800
v 5.3500 -0.6500 1.8800
v 5.3031 -0.4750 1.8800
v 5.0000 -0.6500 1.8000
v 5.3031 -0.4750 1.8000
v 5.3500 -0.6500 1.8000
v 5.0000 -0.6500 1.8800
v 5.3031 -0.4750 1.8800
v 5.1750 -0.3469 1.8800
v 5.0000 -0.6500 1.8000
v 5.1750 -0.3469 1.8000
v 5.3031 -0.4750 1.8000
v 5.0000 -0.6500 1.8800
v 5.1750 -0.3469 1.8800
v 5.0000 -0.3000 1.8800
v 5.0000 -0.6500 1.8000
v 5.0000 -0.3000 1.8000
v 5.1750 -0.3469 1.8000
v 5.0000 -0.6500 1.8800
v 5.0000 -0.3000 1.8800
v 4.8250 -0.3469 1.8800
v 5.0000 -0.6500 1.8000
v 4.8250 -0.3469 1.8000
v 5.0000 -0.3000 1.8000
v 5.0000 -0.6500 1.8800
v 4.8250 -0.3469 1.8800
v 4.6969 -0.4750 1.8800
v 5.0000 -0.6500 1.8000
v 4.6969 -0.4750 1.8000
v 4.8250 -0.3469 1.8000
v 5.0000 -0.6500 1.8800
v 4.6969 -0.4750 1.8800
v 4.6500 -0.6500 1.8800
v 5.0000 -0.6500 1.8000
v 4.6500 -0.6500 1.8000
v 4.6969 -0.4750 1.8000
v 5.0000 -0.6500 1.8800
v 4.6500 -0.6500 1.8800
v 4.6969 -0.8250 1.8800
v 5.0000 -0.6500 1.8000
v 4.6969 -0.8250 1.8000
v 4.6500 -0.6500 1.8000
v 5.0000 -0.6500 1.8800
v 4.6969 -0.8250 1.8800
v 4.8250 -0.9531 1.8800
v 5.0000 -0.6500 1.8000
v 4.8250 -0.9531 1.8000
v 4.6969 -0.8250 1.8000
v 5.0000 -0.6500 1.8800
v 4.8250 -0.9531 1.8800
v 5.0000 -1.0000 1.8800
v 5.0000 -0.6500 1.8000
v 5.0000 -1.0000 1.8000
v 4.8250 -0.9531 1.8000
v 5.0000 -0.6500 1.8800
v 5.0000 -1.0000 1.8800
v 5.1750 -0.9531 1.8800
v 5.0000 -0.6500 1.8000
v 5.1750 -0.9531 1.8000
v 5.0000 -1.0000 1.8000
v 5.0000 -0.6500 1.8800
v 5.1750 -0.9531 1.8800
v 5.3031 -0.8250 1.8800
v 5.0000 -0.6500 1.8000
v 5.3031 -0.8250 1.8000
v 5.1750 -0.9531 1.8000
v 5.0000 -0.6500 1.8800
v 5.3031 -0.8250 1.8800
v 5.3500 -0.6500 1.8800
v 5.0000 -0.6500 1.8000
v 5.3500 -0.6500 1.8000
v 5.3031 -0.8250 1.8000
v 5.2200 -0.6500 1.8800
v 5.1905 -0.5400 1.8800
v 5.1905 -0.5400 2.3500
v 5.2200 -0.6500 2.3500
v 5.1905 -0.5400 1.8800
v 5.1100 -0.4595 1.8800
v 5.1100 -0.4595 2.3500
v 5.1905 -0.5400 2.3500
v 5.1100 -0.4595 1.8800
v 5.0000 -0.4300 1.8800
v 5.0000 -0.4300 2.3500
v 5.1100 -0.4595 2.3500
v 5.0000 -0.4300 1.8800
v 4.8900 -0.4595 1.8800
v 4.8900 -0.4595 2.3500
v 5.0000 -0.4300 2.3500
v 4.8900 -0.4595 1.8800
v 4.8095 -0.5400 1.8800
v 4.8095 -0.5400 2.3500
v 4.8900 -0.4595 2.3500
v 4.8095 -0.5400 1.8800
v 4.7800 -0.6500 1.8800
v 4.7800 -0.6500 2.3500
v 4.8095 -0.5400 2.3500
v 4.7800 -0.6500 1.8800
v 4.8095 -0.7600 1.8800
v 4.8095 -0.7600 2.3500
v 4.7800 -0.6500 2.3500
v 4.8095 -0.7600 1.8800
v 4.8900 -0.8405 1.8800
v 4.8900 -0.8405 2.3500
v 4.8095 -0.7600 2.3500
v 4.8900 -0.8405 1.8800
v 5.0000 -0.8700 1.8800
v 5.0000 -0.8700 2.3500
v 4.8900 -0.8405 2.3500
v 5.0000 -0.8700 1.8800
v 5.1100 -0.8405 1.8800
v 5.1100 -0.8405 2.3500
v 5.0000 -0.8700 2.3500
v 5.1100 -0.8405 1.8800
v 5.1905 -0.7600 1.8800
v 5.1905 -0.7600 2.3500
v 5.1100 -0.8405 2.3500
v 5.1905 -0.7600 1.8800
v 5.1905 -0.7600 2.3500
v 5.2200 -0.6500 2.3500
v 5.2200 -0.6500 1.8800
v 5.2900 -0.6500 2.3500
v 5.2511 -0.5050 2.3500
v 5.2511 -0.5050 2.4800
v 5.2900 -0.6500 2.4800
v 5.2511 -0.5050 2.3500
v 5.1450 -0.3989 2.3500
v 5.1450 -0.3989 2.4800
v 5.2511 -0.5050 2.4800
v 5.1450 -0.3989 2.3500
v 5.0000 -0.3600 2.3500
v 5.0000 -0.3600 2.4800
v 5.1450 -0.3989 2.4800
v 5.0000 -0.3600 2.3500
v 4.8550 -0.3989 2.3500
v 4.8550 -0.3989 2.4800
v 5.0000 -0.3600 2.4800
v 4.8550 -0.3989 2.3500
v 4.7489 -0.5050 2.3500
v 4.7489 -0.5050 2.4800
v 4.8550 -0.3989 2.4800
v 4.7489 -0.5050 2.3500
v 4.7100 -0.6500 2.3500
v 4.7100 -0.6500 2.4800
v 4.7489 -0.5050 2.4800
v 4.7100 -0.6500 2.3500
v 4.7489 -0.7950 2.3500
v 4.7489 -0.7950 2.4800
v 4.7100 -0.6500 2.4800
v 4.7489 -0.7950 2.3500
v 4.8550 -0.9011 2.3500
v 4.8550 -0.9011 2.4800
v 4.7489 -0.7950 2.4800
v 4.8550 -0.9011 2.3500
v 5.0000 -0.9400 2.3500
v 5.0000 -0.9400 2.4800
v 4.8550 -0.9011 2.4800
v 5.0000 -0.9400 2.3500
v 5.1450 -0.9011 2.3500
v 5.1450 -0.9011 2.4800
v 5.0000 -0.9400 2.4800
v 5.1450 -0.9011 2.3500
v 5.2511 -0.7950 2.3500
v 5.2511 -0.7950 2.4800
v 5.1450 -0.9011 2.4800
v 5.2511 -0.7950 2.3500
v 5.2511 -0.7950 2.4800
v 5.2900 -0.6500 2.4800
v 5.2900 -0.6500 2.3500
v 5.0000 -0.6500 2.4800
v 5.2900 -0.6500 2.4800
v 5.2511 -0.5050 2.4800
v 5.0000 -0.6500 2.3500
v 5.2511 -0.5050 2.3500
v 5.2900 -0.6500 2.3500
v 5.0000 -0.6500 2.4800
v 5.2511 -0.5050 2.4800
v 5.1450 -0.3989 2.4800
v 5.0000 -0.6500 2.3500
v 5.1450 -0.3989 2.3500
v 5.2511 -0.5050 2.3500
v 5.0000 -0.6500 2.4800
v 5.1450 -0.3989 2.4800
v 5.0000 -0.3600 2.4800
v 5.0000 -0.6500 2.3500
v 5.0000 -0.3600 2.3500
v 5.1450 -0.3989 2.3500
v 5.0000 -0.6500 2.4800
v 5.0000 -0.3600 2.4800
v 4.8550 -0.3989 2.4800
v 5.0000 -0.6500 2.3500
v 4.8550 -0.3989 2.3500
v 5.0000 -0.3600 2.3500
v 5.0000 -0.6500 2.4800
v 4.8550 -0.3989 2.4800
v 4.7489 -0.5050 2.4800
v 5.0000 -0.6500 2.3500
v 4.7489 -0.5050 2.3500
v 4.8550 -0.3989 2.3500
v 5.0000 -0.6500 2.4800
v 4.7489 -0.5050 2.4800
v 4.7100 -0.6500 2.4800
v 5.0000 -0.6500 2.3500
v 4.7100 -0.6500 2.3500
v 4.7489 -0.5050 2.3500
v 5.0000 -0.6500 2.4800
v 4.7100 -0.6500 2.4800
v 4.7489 -0.7950 2.4800
v 5.0000 -0.6500 2.3500
v 4.7489 -0.7950 2.3500
v 4.7100 -0.6500 2.3500
v 5.0000 -0.6500 2.4800
v 4.7489 -0.7950 2.4800
v 4.8550 -0.9011 2.4800
v 5.0000 -0.6500 2.3500
v 4.8550 -0.9011 2.3500
v 4.7489 -0.7950 2.3500
v 5.0000 -0.6500 2.4800
v 4.8550 -0.9011 2.4800
v 5.0000 -0.9400 2.4800
v 5.0000 -0.6500 2.3500
v 5.0000 -0.9400 2.3500
v 4.8550 -0.9011 2.3500
v 5.0000 -0.6500 2.4800
v 5.0000 -0.9400 2.4800
v 5.1450 -0.9011 2.4800
v 5.0000 -0.6500 2.3500
v 5.1450 -0.9011 2.3500
v 5.0000 -0.9400 2.3500
v 5.0000 -0.6500 2.4800
v 5.1450 -0.9011 2.4800
v 5.2511 -0.7950 2.4800
v 5.0000 -0.6500 2.3500
v 5.2511 -0.7950 2.3500
v 5.1450 -0.9011 2.3500
v 5.0000 -0.6500 2.4800
v 5.2511 -0.7950 2.4800
v 5.2900 -0.6500 2.4800
v 5.0000 -0.6500 2.3500
v 5.2900 -0.6500 2.3500
v 5.2511 -0.7950 2.3500
v 4.6200 -0.7300 2.2400
v 5.3800 -0.7300 2.2400
v 5.3800 -0.5700 2.2400
v 4.6200 -0.5700 2.2400
v 4.6200 -0.5700 2.1600
v 5.3800 -0.5700 2.1600
v 5.3800 -0.7300 2.1600
v 4.6200 -0.7300 2.1600
v 4.6200 -0.5700 2.1600
v 4.6200 -0.5700 2.2400
v 5.3800 -0.5700 2.2400
v 5.3800 -0.5700 2.1600
v 5.3800 -0.7300 2.1600
v 5.3800 -0.7300 2.2400
v 4.6200 -0.7300 2.2400
v 4.6200 -0.7300 2.1600
v 4.6200 -0.7300 2.1600
v 4.6200 -0.7300 2.2400
v 4.6200 -0.5700 2.2400
v 4.6200 -0.5700 2.1600
v 5.3800 -0.5700 2.1600
v 5.3800 -0.5700 2.2400
v 5.3800 -0.7300 2.2400
v 5.3800 -0.7300 2.1600
v 8.5000 5.0000 1.8000
v 8.4531 5.1750 1.8000
v 8.4531 5.1750 1.8800
v 8.5000 5.0000 1.8800
v 8.4531 5.1750 1.8000
v 8.3250 5.3031 1.8000
v 8.3250 5.3031 1.8800
v 8.4531 5.1750 1.8800
v 8.3250 5.3031 1.8000
v 8.1500 5.3500 1.8000
v 8.1500 5.3500 1.8800
v 8.3250 5.3031 1.8800
v 8.1500 5.3500 1.8000
v 7.9750 5.3031 1.8000
v 7.9750 5.3031 1.8800
v 8.1500 5.3500 1.8800
v 7.9750 5.3031 1.8000
v 7.8469 5.1750 1.8000
v 7.8469 5.1750 1.8800
v 7.9750 5.3031 1.8800
v 7.8469 5.1750 1.8000
v 7.8000 5.0000 1.8000
v 7.8000 5.0000 1.8800
v 7.8469 5.1750 1.8800
v 7.8000 5.0000 1.8000
v 7.8469 4.8250 1.8000
v 7.8469 4.8250 1.8800
v 7.8000 5.0000 1.8800
v 7.8469 4.8250 1.8000
v 7.9750 4.6969 1.8000
v 7.9750 4.6969 1.8800
v 7.8469 4.8250 1.8800
v 7.9750 4.6969 1.8000
v 8.1500 4.6500 1.8000
v 8.1500 4.6500 1.8800
v 7.9750 4.6969 1.8800
v 8.1500 4.6500 1.8000
v 8.3250 4.6969 1.8000
v 8.3250 4.6969 1.8800
v 8.1500 4.6500 1.8800
v 8.3250 4.6969 1.8000
v 8.4531 4.8250 1.8000
v 8.4531 4.8250 1.8800
v 8.3250 4.6969 1.8800
v 8.4531 4.8250 1.8000
v 8.4531 4.8250 1.8800
v 8.5000 5.0000 1.8800
v 8.5000 5.0000 1.8000
v 8.1500 5.0000 1.8800
v 8.5000 5.0000 1.8800
v 8.4531 5.1750 1.8800
v 8.1500 5.0000 1.8000
v 8.4531 5.1750 1.8000
v 8.5000 5.0000 1.8000
v 8.1500 5.0000 1.8800
v 8.4531 5.1750 1.8800
v 8.3250 5.3031 1.8800
v 8.1500 5.0000 1.8000
v 8.3250 5.3031 1.8000
v 8.4531 5.1750 1.8000
v 8.1500 5.0000 1.8800
v 8.3250 5.3031 1.8800
v 8.1500 5.3500 1.8800
v 8.1500 5.0000 1.8000
v 8.1500 5.3500 1.8000
v 8.3250 5.3031 1.8000
v 8.1500 5.0000 1.8800
v 8.1500 5.3500 1.8800
v 7.9750 5.3031 1.8800
v 8.1500 5.0000 1.8000
v 7.9750 5.3031 1.8000
v 8.1500 5.3500 1.8000
v 8.1500 5.0000 1.8800
v 7.9750 5.3031 1.8800
v 7.8469 5.1750 1.8800
v 8.1500 5.0000 1.8000
v 7.8469 5.1750 1.8000
v 7.9750 5.3031 1.8000
v 8.1500 5.0000 1.8800
v 7.8469 5.1750 1.8800
v 7.8000 5.0000 1.8800
v 8.1500 5.0000 1.8000
v 7.8000 5.0000 1.8000
v 7.8469 5.1750 1.8000
v 8.1500 5.0000 1.8800
v 7.8000 5.0000 1.8800
v 7.8469 4.8250 1.8800
v 8.1500 5.0000 1.8000
v 7.8469 4.8250 1.8000
v 7.8000 5.0000 1.8000
v 8.1500 5.0000 1.8800
v 7.8469 4.8250 1.8800
v 7.9750 4.6969 1.8800
v 8.1500 5.0000 1.8000
v 7.9750 4.6969 1.8000
v 7.8469 4.8250 1.8000
v 8.1500 5.0000 1.8800
v 7.9750 4.6969 1.8800
v 8.1500 4.6500 1.8800
v 8.1500 5.0000 1.8000
v 8.1500 4.6500 1.8000
v 7.9750 4.6969 1.8000
v 8.1500 5.0000 1.8800
v 8.1500 4.6500 1.8800
v 8.3250 4.6969 1.8800
v 8.1500 5.0000 1.8000
v 8.3250 4.6969 1.8000
v 8.1500 4.6500 1.8000
v 8.1500 5.0000 1.8800
v 8.3250 4.6969 1.8800
v 8.4531 4.8250 1.8800
v 8.1500 5.0000 1.8000
v 8.4531 4.8250 1.8000
v 8.3250 4.6969 1.8000
v 8.1500 5.0000 1.8800
v 8.4531 4.8250 1.8800
v 8.5000 5.0000 1.8800
v 8.1500 5.0000 1.8000
v 8.5000 5.0000 1.8000
v 8.4531 4.8250 1.8000
v 8.3700 5.0000 1.8800
v 8.3405 5.1100 1.8800
v 8.3405 5.1100 2.3500
v 8.3700 5.0000 2.3500
v 8.3405 5.1100 1.8800
v 8.2600 5.1905 1.8800
v 8.2600 5.1905 2.3500
v 8.3405 5.1100 2.3500
v 8.2600 5.1905 1.8800
v 8.1500 5.2200 1.8800
v 8.1500 5.2200 2.3500
v 8.2600 5.1905 2.3500
v 8.1500 5.2200 1.8800
v 8.0400 5.1905 1.8800
v 8.0400 5.1905 2.3500
v 8.1500 5.2200 2.3500
v 8.0400 5.1905 1.8800
v 7.9595 5.1100 1.8800
v 7.9595 5.1100 2.3500
v 8.0400 5.1905 2.3500
v 7.9595 5.1100 1.8800
v 7.9300 5.0000 1.8800
v 7.9300 5.0000 2.3500
v 7.9595 5.1100 2.3500
v 7.9300 5.0000 1.8800
v 7.9595 4.8900 1.8800
v 7.9595 4.8900 2.3500
v 7.9300 5.0000 2.3500
v 7.9595 4.8900 1.8800
v 8.0400 4.8095 1.8800
v 8.0400 4.8095 2.3500
v 7.9595 4.8900 2.3500
v 8.0400 4.8095 1.8800
v 8.1500 4.7800 1.8800
v 8.1500 4.7800 2.3500
v 8.0400 4.8095 2.3500
v 8.1500 4.7800 1.8800
v 8.2600 4.8095 1.8800
v 8.2600 4.8095 2.3500
v 8.1500 4.7800 2.3500
v 8.2600 4.8095 1.8800
v 8.3405 4.8900 1.8800
v 8.3405 4.8900 2.3500
v 8.2600 4.8095 2.3500
v 8.3405 4.8900 1.8800
v 8.3405 4.8900 2.3500
v 8.3700 5.0000 2.3500
v 8.3700 5.0000 1.8800
v 8.4400 5.0000 2.3500
v 8.4011 5.1450 2.3500
v 8.4011 5.1450 2.4800
v 8.4400 5.0000 2.4800
v 8.4011 5.1450 2.3500
v 8.2950 5.2511 2.3500
v 8.2950 5.2511 2.4800
v 8.4011 5.1450 2.4800
v 8.2950 5.2511 2.3500
v 8.1500 5.2900 2.3500
v 8.1500 5.2900 2.4800
v 8.2950 5.2511 2.4800
v 8.1500 5.2900 2.3500
v 8.0050 5.2511 2.3500
v 8.0050 5.2511 2.4800
v 8.1500 5.2900 2.4800
v 8.0050 5.2511 2.3500
v 7.8989 5.1450 2.3500
v 7.8989 5.1450 2.4800
v 8.0050 5.2511 2.4800
v 7.8989 5.1450 2.3500
v 7.8600 5.0000 2.3500
v 7.8600 5.0000 2.4800
v 7.8989 5.1450 2.4800
v 7.8600 5.0000 2.3500
v 7.8989 4.8550 2.3500
v 7.8989 4.8550 2.4800
v 7.8600 5.0000 2.4800
v 7.8989 4.8550 2.3500
v 8.0050 4.7489 2.3500
v 8.0050 4.7489 2.4800
v 7.8989 4.8550 2.4800
v 8.0050 4.7489 2.3500
v 8.1500 4.7100 2.3500
v 8.1500 4.7100 2.4800
v 8.0050 4.7489 2.4800
v 8.1500 4.7100 2.3500
v 8.2950 4.7489 2.3500
v 8.2950 4.7489 2.4800
v 8.1500 4.7100 2.4800
v 8.2950 4.7489 2.3500
v 8.4011 4.8550 2.3500
v 8.4011 4.8550 2.4800
v 8.2950 4.7489 2.4800
v 8.4011 4.8550 2.3500
v 8.4011 4.8550 2.4800
v 8.4400 5.0000 2.4800
v 8.4400 5.0000 2.3500
v 8.1500 5.0000 2.4800
v 8.4400 5.0000 2.4800
v 8.4011 5.1450 2.4800
v 8.1500 5.0000 2.3500
v 8.4011 5.1450 2.3500
v 8.4400 5.0000 2.3500
v 8.1500 5.0000 2.4800
v 8.4011 5.1450 2.4800
v 8.2950 5.2511 2.4800
v 8.1500 5.0000 2.3500
v 8.2950 5.2511 2.3500
v 8.4011 5.1450 2.3500
v 8.1500 5.0000 2.4800
v 8.2950 5.2511 2.4800
v 8.1500 5.2900 2.4800
v 8.1500 5.0000 2.3500
v 8.1500 5.2900 2.3500
v 8.2950 5.2511 2.3500
v 8.1500 5.0000 2.4800
v 8.1500 5.2900 2.4800
v 8.0050 5.2511 2.4800
v 8.1500 5.0000 2.3500
v 8.0050 5.2511 2.3500
v 8.1500 5.2900 2.3500
v 8.1500 5.0000 2.4800
v 8.0050 5.2511 2.4800
v 7.8989 5.1450 2.4800
v 8.1500 5.0000 2.3500
v 7.8989 5.1450 2.3500
v 8.0050 5.2511 2.3500
v 8.1500 5.0000 2.4800
v 7.8989 5.1450 2.4800
v 7.8600 5.0000 2.4800
v 8.1500 5.0000 2.3500
v 7.8600 5.0000 2.3500
v 7.8989 5.1450 2.3500
v 8.1500 5.0000 2.4800
v 7.8600 5.0000 2.4800
v 7.8989 4.8550 2.4800
v 8.1500 5.0000 2.3500
v 7.8989 4.8550 2.3500
v 7.8600 5.0000 2.3500
v 8.1500 5.0000 2.4800
v 7.8989 4.8550 2.4800
v 8.0050 4.7489 2.4800
v 8.1500 5.0000 2.3500
v 8.0050 4.7489 2.3500
v 7.8989 4.8550 2.3500
v 8.1500 5.0000 2.4800
v 8.0050 4.7489 2.4800
v 8.1500 4.7100 2.4800
v 8.1500 5.0000 2.3500
v 8.1500 4.7100 2.3500
v 8.0050 4.7489 2.3500
v 8.1500 5.0000 2.4800
v 8.1500 4.7100 2.4800
v 8.2950 4.7489 2.4800
v 8.1500 5.0000 2.3500
v 8.2950 4.7489 2.3500
v 8.1500 4.7100 2.3500
v 8.1500 5.0000 2.4800
v 8.2950 4.7489 2.4800
v 8.4011 4.8550 2.4800
v 8.1500 5.0000 2.3500
v 8.4011 4.8550 2.3500
v 8.2950 4.7489 2.3500
v 8.1500 5.0000 2.4800
v 8.4011 4.8550 2.4800
v 8.4400 5.0000 2.4800
v 8.1500 5.0000 2.3500
v 8.4400 5.0000 2.3500
v 8.4011 4.8550 2.3500
v 7.7700 4.9200 2.2400
v 8.5300 4.9200 2.2400
v 8.5300 5.0800 2.2400
v 7.7700 5.0800 2.2400
v 7.7700 5.0800 2.1600
v 8.5300 5.0800 2.1600
v 8.5300 4.9200 2.1600
v 7.7700 4.9200 2.1600
v 7.7700 5.0800 2.1600
v 7.7700 5.0800 2.2400
v 8.5300 5.0800 2.2400
v 8.5300 5.0800 2.1600
v 8.5300 4.9200 2.1600
v 8.5300 4.9200 2.2400
v 7.7700 4.9200 2.2400
v 7.7700 4.9200 2.1600
v 7.7700 4.9200 2.1600
v 7.7700 4.9200 2.2400
v 7.7700 5.0800 2.2400
v 7.7700 5.0800 2.1600
v 8.5300 5.0800 2.1600
v 8.5300 5.0800 2.2400
v 8.5300 4.9200 2.2400
v 8.5300 4.9200 2.1600
v 3.0600 -0.0500 2.2000
v 3.1000 -0.0500 2.2000
v 3.1000 0.0200 2.2000
v 3.0600 0.0200 2.2000
v 3.0600 0.0200 -1.2000
v 3.1000 0.0200 -1.2000
v 3.1000 -0.0500 -1.2000
v 3.0600 -0.0500 -1.2000
v 3.0600 0.0200 -1.2000
v 3.0600 0.0200 2.2000
v 3.1000 0.0200 2.2000
v 3.1000 0.0200 -1.2000
v 3.1000 -0.0500 -1.2000
v 3.1000 -0.0500 2.2000
v 3.0600 -0.0500 2.2000
v 3.0600 -0.0500 -1.2000
v 3.0600 -0.0500 -1.2000
v 3.0600 -0.0500 2.2000
v 3.0600 0.0200 2.2000
v 3.0600 0.0200 -1.2000
v 3.1000 0.0200 -1.2000
v 3.1000 0.0200 2.2000
v 3.1000 -0.0500 2.2000
v 3.1000 -0.0500 -1.2000
v 3.6500 -0.0500 2.2000
v 3.6900 -0.0500 2.2000
v 3.6900 0.0200 2.2000
v 3.6500 0.0200 2.2000
v 3.6500 0.0200 -1.2000
v 3.6900 0.0200 -1.2000
v 3.6900 -0.0500 -1.2000
v 3.6500 -0.0500 -1.2000
v 3.6500 0.0200 -1.2000
v 3.6500 0.0200 2.2000
v 3.6900 0.0200 2.2000
v 3.6900 0.0200 -1.2000
v 3.6900 -0.0500 -1.2000
v 3.6900 -0.0500 2.2000
v 3.6500 -0.0500 2.2000
v 3.6500 -0.0500 -1.2000
v 3.6500 -0.0500 -1.2000
v 3.6500 -0.0500 2.2000
v 3.6500 0.0200 2.2000
v 3.6500 0.0200 -1.2000
v 3.6900 0.0200 -1.2000
v 3.6900 0.0200 2.2000
v 3.6900 -0.0500 2.2000
v 3.6900 -0.0500 -1.2000
v 3.1000 -0.0300 -1.0320
v 3.6500 -0.0300 -1.0320
v 3.6500 0.0100 -1.0320
v 3.1000 0.0100 -1.0320
v 3.1000 0.0100 -1.0680
v 3.6500 0.0100 -1.0680
v 3.6500 -0.0300 -1.0680
v 3.1000 -0.0300 -1.0680
v 3.1000 0.0100 -1.0680
v 3.1000 0.0100 -1.0320
v 3.6500 0.0100 -1.0320
v 3.6500 0.0100 -1.0680
v 3.6500 -0.0300 -1.0680
v 3.6500 -0.0300 -1.0320
v 3.1000 -0.0300 -1.0320
v 3.1000 -0.0300 -1.0680
v 3.1000 -0.0300 -1.0680
v 3.1000 -0.0300 -1.0320
v 3.1000 0.0100 -1.0320
v 3.1000 0.0100 -1.0680
v 3.6500 0.0100 -1.0680
v 3.6500 0.0100 -1.0320
v 3.6500 -0.0300 -1.0320
v 3.6500 -0.0300 -1.0680
v 3.1000 -0.0300 -0.7320
v 3.6500 -0.0300 -0.7320
v 3.6500 0.0100 -0.7320
v 3.1000 0.0100 -0.7320
v 3.1000 0.0100 -0.7680
v 3.6500 0.0100 -0.7680
v 3.6500 -0.0300 -0.7680
v 3.1000 -0.0300 -0.7680
v 3.1000 0.0100 -0.7680
v 3.1000 0.0100 -0.7320
v 3.6500 0.0100 -0.7320
v 3.6500 0.0100 -0.7680
v 3.6500 -0.0300 -0.7680
v 3.6500 -0.0300 -0.7320
v 3.1000 -0.0300 -0.7320
v 3.1000 -0.0300 -0.7680
v 3.1000 -0.0300 -0.7680
v 3.1000 -0.0300 -0.7320
v 3.1000 0.0100 -0.7320
v 3.1000 0.0100 -0.7680
v 3.6500 0.0100 -0.7680
v 3.6500 0.0100 -0.7320
v 3.6500 -0.0300 -0.7320
v 3.6500 -0.0300 -0.7680
v 3.1000 -0.0300 -0.4320
v 3.6500 -0.0300 -0.4320
v 3.6500 0.0100 -0.4320
v 3.1000 0.0100 -0.4320
v 3.1000 0.0100 -0.4680
v 3.6500 0.0100 -0.4680
v 3.6500 -0.0300 -0.4680
v 3.1000 -0.0300 -0.4680
v 3.1000 0.0100 -0.4680
v 3.1000 0.0100 -0.4320
v 3.6500 0.0100 -0.4320
v 3.6500 0.0100 -0.4680
v 3.6500 -0.0300 -0.4680
v 3.6500 -0.0300 -0.4320
v 3.1000 -0.0300 -0.4320
v 3.1000 -0.0300 -0.4680
v 3.1000 -0.0300 -0.4680
v 3.1000 -0.0300 -0.4320
v 3.1000 0.0100 -0.4320
v 3.1000 0.0100 -0.4680
v 3.6500 0.0100 -0.4680
v 3.6500 0.0100 -0.4320
v 3.6500 -0.0300 -0.4320
v 3.6500 -0.0300 -0.4680
v 3.1000 -0.0300 -0.1320
v 3.6500 -0.0300 -0.1320
v 3.6500 0.0100 -0.1320
v 3.1000 0.0100 -0.1320
v 3.1000 0.0100 -0.1680
v 3.6500 0.0100 -0.1680
v 3.6500 -0.0300 -0.1680
v 3.1000 -0.0300 -0.1680
v 3.1000 0.0100 -0.1680
v 3.1000 0.0100 -0.1320
v 3.6500 0.0100 -0.1320
v 3.6500 0.0100 -0.1680
v 3.6500 -0.0300 -0.1680
v 3.6500 -0.0300 -0.1320
v 3.1000 -0.0300 -0.1320
v 3.1000 -0.0300 -0.1680
v 3.1000 -0.0300 -0.1680
v 3.1000 -0.0300 -0.1320
v 3.1000 0.0100 -0.1320
v 3.1000 0.0100 -0.1680
v 3.6500 0.0100 -0.1680
v 3.6500 0.0100 -0.1320
v 3.6500 -0.0300 -0.1320
v 3.6500 -0.0300 -0.1680
v 3.1000 -0.0300 0.1680
v 3.6500 -0.0300 0.1680
v 3.6500 0.0100 0.1680
v 3.1000 0.0100 0.1680
v 3.1000 0.0100 0.1320
v 3.6500 0.0100 0.1320
v 3.6500 -0.0300 0.1320
v 3.1000 -0.0300 0.1320
v 3.1000 0.0100 0.1320
v 3.1000 0.0100 0.1680
v 3.6500 0.0100 0.1680
v 3.6500 0.0100 0.1320
v 3.6500 -0.0300 0.1320
v 3.6500 -0.0300 0.1680
v 3.1000 -0.0300 0.1680
v 3.1000 -0.0300 0.1320
v 3.1000 -0.0300 0.1320
v 3.1000 -0.0300 0.1680
v 3.1000 0.0100 0.1680
v 3.1000 0.0100 0.1320
v 3.6500 0.0100 0.1320
v 3.6500 0.0100 0.1680
v 3.6500 -0.0300 0.1680
v 3.6500 -0.0300 0.1320
v 3.1000 -0.0300 0.4680
v 3.6500 -0.0300 0.4680
v 3.6500 0.0100 0.4680
v 3.1000 0.0100 0.4680
v 3.1000 0.0100 0.4320
v 3.6500 0.0100 0.4320
v 3.6500 -0.0300 0.4320
v 3.1000 -0.0300 0.4320
v 3.1000 0.0100 0.4320
v 3.1000 0.0100 0.4680
v 3.6500 0.0100 0.4680
v 3.6500 0.0100 0.4320
v 3.6500 -0.0300 0.4320
v 3.6500 -0.0300 0.4680
v 3.1000 -0.0300 0.4680
v 3.1000 -0.0300 0.4320
v 3.1000 -0.0300 0.4320
v 3.1000 -0.0300 0.4680
v 3.1000 0.0100 0.4680
v 3.1000 0.0100 0.4320
v 3.6500 0.0100 0.4320
v 3.6500 0.0100 0.4680
v 3.6500 -0.0300 0.4680
v 3.6500 -0.0300 0.4320
v 3.1000 -0.0300 0.7680
v 3.6500 -0.0300 0.7680
v 3.6500 0.0100 0.7680
v 3.1000 0.0100 0.7680
v 3.1000 0.0100 0.7320
v 3.6500 0.0100 0.7320
v 3.6500 -0.0300 0.7320
v 3.1000 -0.0300 0.7320
v 3.1000 0.0100 0.7320
v 3.1000 0.0100 0.7680
v 3.6500 0.0100 0.7680
v 3.6500 0.0100 0.7320
v 3.6500 -0.0300 0.7320
v 3.6500 -0.0300 0.7680
v 3.1000 -0.0300 0.7680
v 3.1000 -0.0300 0.7320
v 3.1000 -0.0300 0.7320
v 3.1000 -0.0300 0.7680
v 3.1000 0.0100 0.7680
v 3.1000 0.0100 0.7320
v 3.6500 0.0100 0.7320
v 3.6500 0.0100 0.7680
v 3.6500 -0.0300 0.7680
v 3.6500 -0.0300 0.7320
v 3.1000 -0.0300 1.0680
v 3.6500 -0.0300 1.0680
v 3.6500 0.0100 1.0680
v 3.1000 0.0100 1.0680
v 3.1000 0.0100 1.0320
v 3.6500 0.0100 1.0320
v 3.6500 -0.0300 1.0320
v 3.1000 -0.0300 1.0320
v 3.1000 0.0100 1.0320
v 3.1000 0.0100 1.0680
v 3.6500 0.0100 1.0680
v 3.6500 0.0100 1.0320
v 3.6500 -0.0300 1.0320
v 3.6500 -0.0300 1.0680
v 3.1000 -0.0300 1.0680
v 3.1000 -0.0300 1.0320
v 3.1000 -0.0300 1.0320
v 3.1000 -0.0300 1.0680
v 3.1000 0.0100 1.0680
v 3.1000 0.0100 1.0320
v 3.6500 0.0100 1.0320
v 3.6500 0.0100 1.0680
v 3.6500 -0.0300 1.0680
v 3.6500 -0.0300 1.0320
v 3.1000 -0.0300 1.3680
v 3.6500 -0.0300 1.3680
v 3.6500 0.0100 1.3680
v 3.1000 0.0100 1.3680
v 3.1000 0.0100 1.3320
v 3.6500 0.0100 1.3320
v 3.6500 -0.0300 1.3320
v 3.1000 -0.0300 1.3320
v 3.1000 0.0100 1.3320
v 3.1000 0.0100 1.3680
v 3.6500 0.0100 1.3680
v 3.6500 0.0100 1.3320
v 3.6500 -0.0300 1.3320
v 3.6500 -0.0300 1.3680
v 3.1000 -0.0300 1.3680
v 3.1000 -0.0300 1.3320
v 3.1000 -0.0300 1.3320
v 3.1000 -0.0300 1.3680
v 3.1000 0.0100 1.3680
v 3.1000 0.0100 1.3320
v 3.6500 0.0100 1.3320
v 3.6500 0.0100 1.3680
v 3.6500 -0.0300 1.3680
v 3.6500 -0.0300 1.3320
v 3.1000 -0.0300 1.6680
v 3.6500 -0.0300 1.6680
v 3.6500 0.0100 1.6680
v 3.1000 0.0100 1.6680
v 3.1000 0.0100 1.6320
v 3.6500 0.0100 1.6320
v 3.6500 -0.0300 1.6320
v 3.1000 -0.0300 1.6320
v 3.1000 0.0100 1.6320
v 3.1000 0.0100 1.6680
v 3.6500 0.0100 1.6680
v 3.6500 0.0100 1.6320
v 3.6500 -0.0300 1.6320
v 3.6500 -0.0300 1.6680
v 3.1000 -0.0300 1.6680
v 3.1000 -0.0300 1.6320
v 3.1000 -0.0300 1.6320
v 3.1000 -0.0300 1.6680
v 3.1000 0.0100 1.6680
v 3.1000 0.0100 1.6320
v 3.6500 0.0100 1.6320
v 3.6500 0.0100 1.6680
v 3.6500 -0.0300 1.6680
v 3.6500 -0.0300 1.6320
v 7.4800 5.6850 2.2000
v 7.5500 5.6850 2.2000
v 7.5500 5.7250 2.2000
v 7.4800 5.7250 2.2000
v 7.4800 5.7250 -1.2000
v 7.5500 5.7250 -1.2000
v 7.5500 5.6850 -1.2000
v 7.4800 5.6850 -1.2000
v 7.4800 5.7250 -1.2000
v 7.4800 5.7250 2.2000
v 7.5500 5.7250 2.2000
v 7.5500 5.7250 -1.2000
v 7.5500 5.6850 -1.2000
v 7.5500 5.6850 2.2000
v 7.4800 5.6850 2.2000
v 7.4800 5.6850 -1.2000
v 7.4800 5.6850 -1.2000
v 7.4800 5.6850 2.2000
v 7.4800 5.7250 2.2000
v 7.4800 5.7250 -1.2000
v 7.5500 5.7250 -1.2000
v 7.5500 5.7250 2.2000
v 7.5500 5.6850 2.2000
v 7.5500 5.6850 -1.2000
v 7.4800 6.2750 2.2000
v 7.5500 6.2750 2.2000
v 7.5500 6.3150 2.2000
v 7.4800 6.3150 2.2000
v 7.4800 6.3150 -1.2000
v 7.5500 6.3150 -1.2000
v 7.5500 6.2750 -1.2000
v 7.4800 6.2750 -1.2000
v 7.4800 6.3150 -1.2000
v 7.4800 6.3150 2.2000
v 7.5500 6.3150 2.2000
v 7.5500 6.3150 -1.2000
v 7.5500 6.2750 -1.2000
v 7.5500 6.2750 2.2000
v 7.4800 6.2750 2.2000
v 7.4800 6.2750 -1.2000
v 7.4800 6.2750 -1.2000
v 7.4800 6.2750 2.2000
v 7.4800 6.3150 2.2000
v 7.4800 6.3150 -1.2000
v 7.5500 6.3150 -1.2000
v 7.5500 6.3150 2.2000
v 7.5500 6.2750 2.2000
v 7.5500 6.2750 -1.2000
v 7.4900 5.7250 -1.0320
v 7.5300 5.7250 -1.0320
v 7.5300 6.2750 -1.0320
v 7.4900 6.2750 -1.0320
v 7.4900 6.2750 -1.0680
v 7.5300 6.2750 -1.0680
v 7.5300 5.7250 -1.0680
v 7.4900 5.7250 -1.0680
v 7.4900 6.2750 -1.0680
v 7.4900 6.2750 -1.0320
v 7.5300 6.2750 -1.0320
v 7.5300 6.2750 -1.0680
v 7.5300 5.7250 -1.0680
v 7.5300 5.7250 -1.0320
v 7.4900 5.7250 -1.0320
v 7.4900 5.7250 -1.0680
v 7.4900 5.7250 -1.0680
v 7.4900 5.7250 -1.0320
v 7.4900 6.2750 -1.0320
v 7.4900 6.2750 -1.0680
v 7.5300 6.2750 -1.0680
v 7.5300 6.2750 -1.0320
v 7.5300 5.7250 -1.0320
v 7.5300 5.7250 -1.0680
v 7.4900 5.7250 -0.7320
v 7.5300 5.7250 -0.7320
v 7.5300 6.2750 -0.7320
v 7.4900 6.2750 -0.7320
v 7.4900 6.2750 -0.7680
v 7.5300 6.2750 -0.7680
v 7.5300 5.7250 -0.7680
v 7.4900 5.7250 -0.7680
v 7.4900 6.2750 -0.7680
v 7.4900 6.2750 -0.7320
v 7.5300 6.2750 -0.7320
v 7.5300 6.2750 -0.7680
v 7.5300 5.7250 -0.7680
v 7.5300 5.7250 -0.7320
v 7.4900 5.7250 -0.7320
v 7.4900 5.7250 -0.7680
v 7.4900 5.7250 -0.7680
v 7.4900 5.7250 -0.7320
v 7.4900 6.2750 -0.7320
v 7.4900 6.2750 -0.7680
v 7.5300 6.2750 -0.7680
v 7.5300 6.2750 -0.7320
v 7.5300 5.7250 -0.7320
v 7.5300 5.7250 -0.7680
v 7.4900 5.7250 -0.4320
v 7.5300 5.7250 -0.4320
v 7.5300 6.2750 -0.4320
v 7.4900 6.2750 -0.4320
v 7.4900 6.2750 -0.4680
v 7.5300 6.2750 -0.4680
v 7.5300 5.7250 -0.4680
v 7.4900 5.7250 -0.4680
v 7.4900 6.2750 -0.4680
v 7.4900 6.2750 -0.4320
v 7.5300 6.2750 -0.4320
v 7.5300 6.2750 -0.4680
v 7.5300 5.7250 -0.4680
v 7.5300 5.7250 -0.4320
v 7.4900 5.7250 -0.4320
v 7.4900 5.7250 -0.4680
v 7.4900 5.7250 -0.4680
v 7.4900 5.7250 -0.4320
v 7.4900 6.2750 -0.4320
v 7.4900 6.2750 -0.4680
v 7.5300 6.2750 -0.4680
v 7.5300 6.2750 -0.4320
v 7.5300 5.7250 -0.4320
v 7.5300 5.7250 -0.4680
v 7.4900 5.7250 -0.1320
v 7.5300 5.7250 -0.1320
v 7.5300 6.2750 -0.1320
v 7.4900 6.2750 -0.1320
v 7.4900 6.2750 -0.1680
v 7.5300 6.2750 -0.1680
v 7.5300 5.7250 -0.1680
v 7.4900 5.7250 -0.1680
v 7.4900 6.2750 -0.1680
v 7.4900 6.2750 -0.1320
v 7.5300 6.2750 -0.1320
v 7.5300 6.2750 -0.1680
v 7.5300 5.7250 -0.1680
v 7.5300 5.7250 -0.1320
v 7.4900 5.7250 -0.1320
v 7.4900 5.7250 -0.1680
v 7.4900 5.7250 -0.1680
v 7.4900 5.7250 -0.1320
v 7.4900 6.2750 -0.1320
v 7.4900 6.2750 -0.1680
v 7.5300 6.2750 -0.1680
v 7.5300 6.2750 -0.1320
v 7.5300 5.7250 -0.1320
v 7.5300 5.7250 -0.1680
v 7.4900 5.7250 0.1680
v 7.5300 5.7250 0.1680
v 7.5300 6.2750 0.1680
v 7.4900 6.2750 0.1680
v 7.4900 6.2750 0.1320
v 7.5300 6.2750 0.1320
v 7.5300 5.7250 0.1320
v 7.4900 5.7250 0.1320
v 7.4900 6.2750 0.1320
v 7.4900 6.2750 0.1680
v 7.5300 6.2750 0.1680
v 7.5300 6.2750 0.1320
v 7.5300 5.7250 0.1320
v 7.5300 5.7250 0.1680
v 7.4900 5.7250 0.1680
v 7.4900 5.7250 0.1320
v 7.4900 5.7250 0.1320
v 7.4900 5.7250 0.1680
v 7.4900 6.2750 0.1680
v 7.4900 6.2750 0.1320
v 7.5300 6.2750 0.1320
v 7.5300 6.2750 0.1680
v 7.5300 5.7250 0.1680
v 7.5300 5.7250 0.1320
v 7.4900 5.7250 0.4680
v 7.5300 5.7250 0.4680
v 7.5300 6.2750 0.4680
v 7.4900 6.2750 0.4680
v 7.4900 6.2750 0.4320
v 7.5300 6.2750 0.4320
v 7.5300 5.7250 0.4320
v 7.4900 5.7250 0.4320
v 7.4900 6.2750 0.4320
v 7.4900 6.2750 0.4680
v 7.5300 6.2750 0.4680
v 7.5300 6.2750 0.4320
v 7.5300 5.7250 0.4320
v 7.5300 5.7250 0.4680
v 7.4900 5.7250 0.4680
v 7.4900 5.7250 0.4320
v 7.4900 5.7250 0.4320
v 7.4900 5.7250 0.4680
v 7.4900 6.2750 0.4680
v 7.4900 6.2750 0.4320
v 7.5300 6.2750 0.4320
v 7.5300 6.2750 0.4680
v 7.5300 5.7250 0.4680
v 7.5300 5.7250 0.4320
v 7.4900 5.7250 0.7680
v 7.5300 5.7250 0.7680
v 7.5300 6.2750 0.7680
v 7.4900 6.2750 0.7680
v 7.4900 6.2750 0.7320
v 7.5300 6.2750 0.7320
v 7.5300 5.7250 0.7320
v 7.4900 5.7250 0.7320
v 7.4900 6.2750 0.7320
v 7.4900 6.2750 0.7680
v 7.5300 6.2750 0.7680
v 7.5300 6.2750 0.7320
v 7.5300 5.7250 0.7320
v 7.5300 5.7250 0.7680
v 7.4900 5.7250 0.7680
v 7.4900 5.7250 0.7320
v 7.4900 5.7250 0.7320
v 7.4900 5.7250 0.7680
v 7.4900 6.2750 0.7680
v 7.4900 6.2750 0.7320
v 7.5300 6.2750 0.7320
v 7.5300 6.2750 0.7680
v 7.5300 5.7250 0.7680
v 7.5300 5.7250 0.7320
v 7.4900 5.7250 1.0680
v 7.5300 5.7250 1.0680
v 7.5300 6.2750 1.0680
v 7.4900 6.2750 1.0680
v 7.4900 6.2750 1.0320
v 7.5300 6.2750 1.0320
v 7.5300 5.7250 1.0320
v 7.4900 5.7250 1.0320
v 7.4900 6.2750 1.0320
v 7.4900 6.2750 1.0680
v 7.5300 6.2750 1.0680
v 7.5300 6.2750 1.0320
v 7.5300 5.7250 1.0320
v 7.5300 5.7250 1.0680
v 7.4900 5.7250 1.0680
v 7.4900 5.7250 1.0320
v 7.4900 5.7250 1.0320
v 7.4900 5.7250 1.0680
v 7.4900 6.2750 1.0680
v 7.4900 6.2750 1.0320
v 7.5300 6.2750 1.0320
v 7.5300 6.2750 1.0680
v 7.5300 5.7250 1.0680
v 7.5300 5.7250 1.0320
v 7.4900 5.7250 1.3680
v 7.5300 5.7250 1.3680
v 7.5300 6.2750 1.3680
v 7.4900 6.2750 1.3680
v 7.4900 6.2750 1.3320
v 7.5300 6.2750 1.3320
v 7.5300 5.7250 1.3320
v 7.4900 5.7250 1.3320
v 7.4900 6.2750 1.3320
v 7.4900 6.2750 1.3680
v 7.5300 6.2750 1.3680
v 7.5300 6.2750 1.3320
v 7.5300 5.7250 1.3320
v 7.5300 5.7250 1.3680
v 7.4900 5.7250 1.3680
v 7.4900 5.7250 1.3320
v 7.4900 5.7250 1.3320
v 7.4900 5.7250 1.3680
v 7.4900 6.2750 1.3680
v 7.4900 6.2750 1.3320
v 7.5300 6.2750 1.3320
v 7.5300 6.2750 1.3680
v 7.5300 5.7250 1.3680
v 7.5300 5.7250 1.3320
v 7.4900 5.7250 1.6680
v 7.5300 5.7250 1.6680
v 7.5300 6.2750 1.6680
v 7.4900 6.2750 1.6680
v 7.4900 6.2750 1.6320
v 7.5300 6.2750 1.6320
v 7.5300 5.7250 1.6320
v 7.4900 5.7250 1.6320
v 7.4900 6.2750 1.6320
v 7.4900 6.2750 1.6680
v 7.5300 6.2750 1.6680
v 7.5300 6.2750 1.6320
v 7.5300 5.7250 1.6320
v 7.5300 5.7250 1.6680
v 7.4900 5.7250 1.6680
v 7.4900 5.7250 1.6320
v 7.4900 5.7250 1.6320
v 7.4900 5.7250 1.6680
v 7.4900 6.2750 1.6680
v 7.4900 6.2750 1.6320
v 7.5300 6.2750 1.6320
v 7.5300 6.2750 1.6680
v 7.5300 5.7250 1.6680
v 7.5300 5.7250 1.6320

vt 0.0000 0.0000
vt 3.7500 0.0000
vt 3.7500 0.3500
vt 0.0000 0.3500
vt 0.0000 0.0000
vt 0.3500 0.0000
vt 0.3500 0.3500
vt 0.0000 0.3500
vt 0.0000 0.0000
vt 0.3500 0.0000
vt 0.3500 6.0000
vt 0.0000 6.0000
vt 0.0000 0.0000
vt 0.0000 0.2000
vt 3.9250 0.2000
vt 3.9250 0.0000
vt 0.0000 0.0000
vt 0.0000 0.2000
vt 6.1750 0.2000
vt 6.1750 0.0000
vt 0.0000 0.0000
vt 1.9625 0.0000
vt 1.9625 1.0375
vt 0.0000 1.0375
vt 0.0000 0.0000
vt 1.0375 0.0000
vt 1.0375 3.0875
vt 0.0000 3.0875
vt 0.0000 0.0000
vt 1.0375 0.0000
vt 1.0375 1.0375
vt 0.0000 1.0375
vt 0.0000 0.0000
vt 0.0000 0.9333
vt 1.5000 0.9333
vt 1.5000 0.0000
vt 0.0000 0.0000
vt 0.0000 1.0000
vt 1.8750 1.0000
vt 1.8750 0.0000
vt 0.0000 0.0000
vt 0.0000 3.6750
vt 1.2500 3.6750
vt 1.2500 0.0000
vt 0.0000 0.0000
vt 2.4000 0.0000
vt 2.4000 0.9333
vt 0.0000 0.9333
vt 0.0000 0.0000
vt 3.0000 0.0000
vt 3.0000 1.0000
vt 0.0000 1.0000
vt 0.0000 0.0000
vt 2.0000 0.0000
vt 2.0000 3.6750
vt 0.0000 3.6750
vt 0.0000 0.0000
vt 0.0000 4.5000
vt 2.0000 4.5000
vt 2.0000 0.0000
vt 0.0000 0.0000
vt 2.7500 0.0000
vt 2.7500 4.5000
vt 0.0000 4.5000
vt 0.0000 0.0000
vt 0.0000 4.5000
vt 1.1250 4.5000
vt 1.1250 0.0000
vt 0.0000 0.0000
vt 0.0000 4.5000
vt 1.1250 4.5000
vt 1.1250 0.0000
vt 0.0000 0.0000
vt 0.0000 1.8750
vt 1.8750 1.1250
vt 1.1250 0.0000
vt 0.0000 0.0000
vt 0.0000 4.1250
vt 4.1250 1.1250
vt 1.1250 0.0000
vt 0.0000 0.0000
vt 0.0000 1.0000
vt 0.1250 1.0000
vt 0.1250 0.0000
vt 0.1250 0.0000
vt 0.1250 1.0000
vt 0.2500 1.0000
vt 0.2500 0.0000
vt 0.2500 0.0000
vt 0.2500 1.0000
vt 0.3750 1.0000
vt 0.3750 0.0000
vt 0.3750 0.0000
vt 0.3750 1.0000
vt 0.5000 1.0000
vt 0.5000 0.0000
vt 0.5000 0.0000
vt 0.5000 1.0000
vt 0.6250 1.0000
vt 0.6250 0.0000
vt 0.6250 0.0000
vt 0.6250 1.0000
vt 0.7500 1.0000
vt 0.7500 0.0000
vt 0.7500 0.0000
vt 0.7500 1.0000
vt 0.8750 1.0000
vt 0.8750 0.0000
vt 0.8750 0.0000
vt 0.8750 1.0000
vt 1.0000 1.0000
vt 1.0000 0.0000
vt 0.5000 0.5000
vt 1.0000 1.0000
vt 0.5000 1.0000
vt 0.5000 0.5000
vt 0.5000 1.0000
vt 1.0000 1.0000
vt 0.5000 0.5000
vt 1.0000 1.0000
vt 0.5000 1.0000
vt 0.5000 0.5000
vt 0.5000 1.0000
vt 1.0000 1.0000
vt 0.5000 0.5000
vt 1.0000 1.0000
vt 0.5000 1.0000
vt 0.5000 0.5000
vt 0.5000 1.0000
vt 1.0000 1.0000
vt 0.5000 0.5000
vt 1.0000 1.0000
vt 0.5000 1.0000
vt 0.5000 0.5000
vt 0.5000 1.0000
vt 1.0000 1.0000
vt 0.5000 0.5000
vt 1.0000 1.0000
vt 0.5000 1.0000
vt 0.5000 0.5000
vt 0.5000 1.0000
vt 1.0000 1.0000
vt 0.5000 0.5000
vt 1.0000 1.0000
vt 0.5000 1.0000
vt 0.5000 0.5000
vt 0.5000 1.0000
vt 1.0000 1.0000
vt 0.5000 0.5000
vt 1.0000 1.0000
vt 0.5000 1.0000
vt 0.5000 0.5000
vt 0.5000 1.0000
vt 1.0000 1.0000
vt 0.5000 0.5000
vt 1.0000 1.0000
vt 0.5000 1.0000
vt 0.5000 0.5000
vt 0.5000 1.0000
vt 1.0000 1.0000
vt 0.0000 0.0000
vt 0.0000 1.0000
vt 0.1250 1.0000
vt 0.1250 0.0000
vt 0.1250 0.0000
vt 0.1250 1.0000
vt 0.2500 1.0000
vt 0.2500 0.0000
vt 0.2500 0.0000
vt 0.2500 1.0000
vt 0.3750 1.0000
vt 0.3750 0.0000
vt 0.3750 0.0000
vt 0.3750 1.0000
vt 0.5000 1.0000
vt 0.5000 0.0000
vt 0.5000 0.0000
vt 0.5000 1.0000
vt 0.6250 1.0000
vt 0.6250 0.0000
vt 0.6250 0.0000
vt 0.6250 1.0000
vt 0.7500 1.0000
vt 0.7500 0.0000
vt 0.7500 0.0000
vt 0.7500 1.0000
vt 0.8750 1.0000
vt 0.8750 0.0000
vt 0.8750 0.0000
vt 0.8750 1.0000
vt 1.0000 1.0000
vt 1.0000 0.0000
vt 0.5000 0.5000
vt 1.0000 1.0000
vt 0.5000 1.0000
vt 0.5000 0.5000
vt 0.5000 1.0000
vt 1.0000 1.0000
vt 0.5000 0.5000
vt 1.0000 1.0000
vt 0.5000 1.0000
vt 0.5000 0.5000
vt 0.5000 1.0000
vt 1.0000 1.0000
vt 0.5000 0.5000
vt 1.0000 1.0000
vt 0.5000 1.0000
vt 0.5000 0.5000
vt 0.5000 1.0000
vt 1.0000 1.0000
vt 0.5000 0.5000
vt 1.0000 1.0000
vt 0.5000 1.0000
vt 0.5000 0.5000
vt 0.5000 1.0000
vt 1.0000 1.0000
vt 0.5000 0.5000
vt 1.0000 1.0000
vt 0.5000 1.0000
vt 0.5000 0.5000
vt 0.5000 1.0000
vt 1.0000 1.0000
vt 0.5000 0.5000
vt 1.0000 1.0000
vt 0.5000 1.0000
vt 0.5000 0.5000
vt 0.5000 1.0000
vt 1.0000 1.0000
vt 0.5000 0.5000
vt 1.0000 1.0000
vt 0.5000 1.0000
vt 0.5000 0.5000
vt 0.5000 1.0000
vt 1.0000 1.0000
vt 0.5000 0.5000
vt 1.0000 1.0000
vt 0.5000 1.0000
vt 0.5000 0.5000
vt 0.5000 1.0000
vt 1.0000 1.0000
vt 0.0000 0.0000
vt 0.0833 0.0000
vt 0.0833 1.0000
vt 0.0000 1.0000
vt 0.0833 0.0000
vt 0.1667 0.0000
vt 0.1667 1.0000
vt 0.0833 1.0000
vt 0.1667 0.0000
vt 0.2500 0.0000
vt 0.2500 1.0000
vt 0.1667 1.0000
vt 0.2500 0.0000
vt 0.3333 0.0000
vt 0.3333 1.0000
vt 0.2500 1.0000
vt 0.3333 0.0000
vt 0.4167 0.0000
vt 0.4167 1.0000
vt 0.3333 1.0000
vt 0.4167 0.0000
vt 0.5000 0.0000
vt 0.5000 1.0000
vt 0.4167 1.0000
vt 0.5000 0.0000
vt 0.5833 0.0000
vt 0.5833 1.0000
vt 0.5000 1.0000
vt 0.5833 0.0000
vt 0.6667 0.0000
vt 0.6667 1.0000
vt 0.5833 1.0000
vt 0.6667 0.0000
vt 0.7500 0.0000
vt 0.7500 1.0000
vt 0.6667 1.0000
vt 0.7500 0.0000
vt 0.8333 0.0000
vt 0.8333 1.0000
vt 0.7500 1.0000
vt 0.8333 0.0000
vt 0.9167 0.0000
vt 0.9167 1.0000
vt 0.8333 1.0000
vt 0.9167 0.0000
vt 0.9167 1.0000
vt 1.0000 1.0000
vt 1.0000 0.0000
vt 0.5000 0.5000
vt 1.0000 0.5000
vt 0.9330 0.7500
vt 0.5000 0.5000
vt 0.9330 0.7500
vt 1.0000 0.5000
vt 0.5000 0.5000
vt 0.9330 0.7500
vt 0.7500 0.9330
vt 0.5000 0.5000
vt 0.7500 0.9330
vt 0.9330 0.7500
vt 0.5000 0.5000
vt 0.7500 0.9330
vt 0.5000 1.0000
vt 0.5000 0.5000
vt 0.5000 1.0000
vt 0.7500 0.9330
vt 0.5000 0.5000
vt 0.5000 1.0000
vt 0.2500 0.9330
vt 0.5000 0.5000
vt 0.2500 0.9330
vt 0.5000 1.0000
vt 0.5000 0.5000
vt 0.2500 0.9330
vt 0.0670 0.7500
vt 0.5000 0.5000
vt 0.0670 0.7500
vt 0.2500 0.9330
vt 0.5000 0.5000
vt 0.0670 0.7500
vt 0.0000 0.5000
vt 0.5000 0.5000
vt 0.0000 0.5000
vt 0.0670 0.7500
vt 0.5000 0.5000
vt 0.0000 0.5000
vt 0.0670 0.2500
vt 0.5000 0.5000
vt 0.0670 0.2500
vt 0.0000 0.5000
vt 0.5000 0.5000
vt 0.0670 0.2500
vt 0.2500 0.0670
vt 0.5000 0.5000
vt 0.2500 0.0670
vt 0.0670 0.2500
vt 0.5000 0.5000
vt 0.2500 0.0670
vt 0.5000 0.0000
vt 0.5000 0.5000
vt 0.5000 0.0000
vt 0.2500 0.0670
vt 0.5000 0.5000
vt 0.5000 0.0000
vt 0.7500 0.0670
vt 0.5000 0.5000
vt 0.7500 0.0670
vt 0.5000 0.0000
vt 0.5000 0.5000
vt 0.7500 0.0670
vt 0.9330 0.2500
vt 0.5000 0.5000
vt 0.9330 0.2500
vt 0.7500 0.0670
vt 0.5000 0.5000
vt 0.9330 0.2500
vt 1.0000 0.5000
vt 0.5000 0.5000
vt 1.0000 0.5000
vt 0.9330 0.2500
vt 0.0000 0.0000
vt 0.0833 0.0000
vt 0.0833 1.0000
vt 0.0000 1.0000
vt 0.0833 0.0000
vt 0.1667 0.0000
vt 0.1667 1.0000
vt 0.0833 1.0000
vt 0.1667 0.0000
vt 0.2500 0.0000
vt 0.2500 1.0000
vt 0.1667 1.0000
vt 0.2500 0.0000
vt 0.3333 0.0000
vt 0.3333 1.0000
vt 0.2500 1.0000
vt 0.3333 0.0000
vt 0.4167 0.0000
vt 0.4167 1.0000
vt 0.3333 1.0000
vt 0.4167 0.0000
vt 0.5000 0.0000
vt 0.5000 1.0000
vt 0.4167 1.0000
vt 0.5000 0.0000
vt 0.5833 0.0000
vt 0.5833 1.0000
vt 0.5000 1.0000
vt 0.5833 0.0000
vt 0.6667 0.0000
vt 0.6667 1.0000
vt 0.5833 1.0000
vt 0.6667 0.0000
vt 0.7500 0.0000
vt 0.7500 1.0000
vt 0.6667 1.0000
vt 0.7500 0.0000
vt 0.8333 0.0000
vt 0.8333 1.0000
vt 0.7500 1.0000
vt 0.8333 0.0000
vt 0.9167 0.0000
vt 0.9167 1.0000
vt 0.8333 1.0000
vt 0.9167 0.0000
vt 0.9167 1.0000
vt 1.0000 1.0000
vt 1.0000 0.0000
vt 0.0000 0.0000
vt 0.0833 0.0000
vt 0.0833 1.0000
vt 0.0000 1.0000
vt 0.0833 0.0000
vt 0.1667 0.0000
vt 0.1667 1.0000
vt 0.0833 1.0000
vt 0.1667 0.0000
vt 0.2500 0.0000
vt 0.2500 1.0000
vt 0.1667 1.0000
vt 0.2500 0.0000
vt 0.3333 0.0000
vt 0.3333 1.0000
vt 0.2500 1.0000
vt 0.3333 0.0000
vt 0.4167 0.0000
vt 0.4167 1.0000
vt 0.3333 1.0000
vt 0.4167 0.0000
vt 0.5000 0.0000
vt 0.5000 1.0000
vt 0.4167 1.0000
vt 0.5000 0.0000
vt 0.5833 0.0000
vt 0.5833 1.0000
vt 0.5000 1.0000
vt 0.5833 0.0000
vt 0.6667 0.0000
vt 0.6667 1.0000
vt 0.5833 1.0000
vt 0.6667 0.0000
vt 0.7500 0.0000
vt 0.7500 1.0000
vt 0.6667 1.0000
vt 0.7500 0.0000
vt 0.8333 0.0000
vt 0.8333 1.0000
vt 0.7500 1.0000
vt 0.8333 0.0000
vt 0.9167 0.0000
vt 0.9167 1.0000
vt 0.8333 1.0000
vt 0.9167 0.0000
vt 0.9167 1.0000
vt 1.0000 1.0000
vt 1.0000 0.0000
vt 0.5000 0.5000
vt 1.0000 0.5000
vt 0.9330 0.7500
vt 0.5000 0.5000
vt 0.9330 0.7500
vt 1.0000 0.5000
vt 0.5000 0.5000
vt 0.9330 0.7500
vt 0.7500 0.9330
vt 0.5000 0.5000
vt 0.7500 0.9330
vt 0.9330 0.7500
vt 0.5000 0.5000
vt 0.7500 0.9330
vt 0.5000 1.0000
vt 0.5000 0.5000
vt 0.5000 1.0000
vt 0.7500 0.9330
vt 0.5000 0.5000
vt 0.5000 1.0000
vt 0.2500 0.9330
vt 0.5000 0.5000
vt 0.2500 0.9330
vt 0.5000 1.0000
vt 0.5000 0.5000
vt 0.2500 0.9330
vt 0.0670 0.7500
vt 0.5000 0.5000
vt 0.0670 0.7500
vt 0.2500 0.9330
vt 0.5000 0.5000
vt 0.0670 0.7500
vt 0.0000 0.5000
vt 0.5000 0.5000
vt 0.0000 0.5000
vt 0.0670 0.7500
vt 0.5000 0.5000
vt 0.0000 0.5000
vt 0.0670 0.2500
vt 0.5000 0.5000
vt 0.0670 0.2500
vt 0.0000 0.5000
vt 0.5000 0.5000
vt 0.0670 0.2500
vt 0.2500 0.0670
vt 0.5000 0.5000
vt 0.2500 0.0670
vt 0.0670 0.2500
vt 0.5000 0.5000
vt 0.2500 0.0670
vt 0.5000 0.0000
vt 0.5000 0.5000
vt 0.5000 0.0000
vt 0.2500 0.0670
vt 0.5000 0.5000
vt 0.5000 0.0000
vt 0.7500 0.0670
vt 0.5000 0.5000
vt 0.7500 0.0670
vt 0.5000 0.0000
vt 0.5000 0.5000
vt 0.7500 0.0670
vt 0.9330 0.2500
vt 0.5000 0.5000
vt 0.9330 0.2500
vt 0.7500 0.0670
vt 0.5000 0.5000
vt 0.9330 0.2500
vt 1.0000 0.5000
vt 0.5000 0.5000
vt 1.0000 0.5000
vt 0.9330 0.2500
vt 0.0000 0.0000
vt 0.7600 0.0000
vt 0.7600 0.1600
vt 0.0000 0.1600
vt 0.0000 0.0000
vt 0.7600 0.0000
vt 0.7600 0.1600
vt 0.0000 0.1600
vt 0.0000 0.0000
vt 0.0000 0.0800
vt 0.7600 0.0800
vt 0.7600 0.0000
vt 0.0000 0.0000
vt 0.0000 0.0800
vt 0.7600 0.0800
vt 0.7600 0.0000
vt 0.0000 0.0000
vt 0.0000 0.0800
vt 0.1600 0.0800
vt 0.1600 0.0000
vt 0.0000 0.0000
vt 0.0000 0.0800
vt 0.1600 0.0800
vt 0.1600 0.0000
vt 0.0000 0.0000
vt 0.0833 0.0000
vt 0.0833 1.0000
vt 0.0000 1.0000
vt 0.0833 0.0000
vt 0.1667 0.0000
vt 0.1667 1.0000
vt 0.0833 1.0000
vt 0.1667 0.0000
vt 0.2500 0.0000
vt 0.2500 1.0000
vt 0.1667 1.0000
vt 0.2500 0.0000
vt 0.3333 0.0000
vt 0.3333 1.0000
vt 0.2500 1.0000
vt 0.3333 0.0000
vt 0.4167 0.0000
vt 0.4167 1.0000
vt 0.3333 1.0000
vt 0.4167 0.0000
vt 0.5000 0.0000
vt 0.5000 1.0000
vt 0.4167 1.0000
vt 0.5000 0.0000
vt 0.5833 0.0000
vt 0.5833 1.0000
vt 0.5000 1.0000
vt 0.5833 0.0000
vt 0.6667 0.0000
vt 0.6667 1.0000
vt 0.5833 1.0000
vt 0.6667 0.0000
vt 0.7500 0.0000
vt 0.7500 1.0000
vt 0.6667 1.0000
vt 0.7500 0.0000
vt 0.8333 0.0000
vt 0.8333 1.0000
vt 0.7500 1.0000
vt 0.8333 0.0000
vt 0.9167 0.0000
vt 0.9167 1.0000
vt 0.8333 1.0000
vt 0.9167 0.0000
vt 0.9167 1.0000
vt 1.0000 1.0000
vt 1.0000 0.0000
vt 0.5000 0.5000
vt 1.0000 0.5000
vt 0.9330 0.7500
vt 0.5000 0.5000
vt 0.9330 0.7500
vt 1.0000 0.5000
vt 0.5000 0.5000
vt 0.9330 0.7500
vt 0.7500 0.9330
vt 0.5000 0.5000
vt 0.7500 0.9330
vt 0.9330 0.7500
vt 0.5000 0.5000
vt 0.7500 0.9330
vt 0.5000 1.0000
vt 0.5000 0.5000
vt 0.5000 1.0000
vt 0.7500 0.9330
vt 0.5000 0.5000
vt 0.5000 1.0000
vt 0.2500 0.9330
vt 0.5000 0.5000
vt 0.2500 0.9330
vt 0.5000 1.0000
vt 0.5000 0.5000
vt 0.2500 0.9330
vt 0.0670 0.7500
vt 0.5000 0.5000
vt 0.0670 0.7500
vt 0.2500 0.9330
vt 0.5000 0.5000
vt 0.0670 0.7500
vt 0.0000 0.5000
vt 0.5000 0.5000
vt 0.0000 0.5000
vt 0.0670 0.7500
vt 0.5000 0.5000
vt 0.0000 0.5000
vt 0.0670 0.2500
vt 0.5000 0.5000
vt 0.0670 0.2500
vt 0.0000 0.5000
vt 0.5000 0.5000
vt 0.0670 0.2500
vt 0.2500 0.0670
vt 0.5000 0.5000
vt 0.2500 0.0670
vt 0.0670 0.2500
vt 0.5000 0.5000
vt 0.2500 0.0670
vt 0.5000 0.0000
vt 0.5000 0.5000
vt 0.5000 0.0000
vt 0.2500 0.0670
vt 0.5000 0.5000
vt 0.5000 0.0000
vt 0.7500 0.0670
vt 0.5000 0.5000
vt 0.7500 0.0670
vt 0.5000 0.0000
vt 0.5000 0.5000
vt 0.7500 0.0670
vt 0.9330 0.2500
vt 0.5000 0.5000
vt 0.9330 0.2500
vt 0.7500 0.0670
vt 0.5000 0.5000
vt 0.9330 0.2500
vt 1.0000 0.5000
vt 0.5000 0.5000
vt 1.0000 0.5000
vt 0.9330 0.2500
vt 0.0000 0.0000
vt 0.0833 0.0000
vt 0.0833 1.0000
vt 0.0000 1.0000
vt 0.0833 0.0000
vt 0.1667 0.0000
vt 0.1667 1.0000
vt 0.0833 1.0000
vt 0.1667 0.0000
vt 0.2500 0.0000
vt 0.2500 1.0000
vt 0.1667 1.0000
vt 0.2500 0.0000
vt 0.3333 0.0000
vt 0.3333 1.0000
vt 0.2500 1.0000
vt 0.3333 0.0000
vt 0.4167 0.0000
vt 0.4167 1.0000
vt 0.3333 1.0000
vt 0.4167 0.0000
vt 0.5000 0.0000
vt 0.5000 1.0000
vt 0.4167 1.0000
vt 0.5000 0.0000
vt 0.5833 0.0000
vt 0.5833 1.0000
vt 0.5000 1.0000
vt 0.5833 0.0000
vt 0.6667 0.0000
vt 0.6667 1.0000
vt 0.5833 1.0000
vt 0.6667 0.0000
vt 0.7500 0.0000
vt 0.7500 1.0000
vt 0.6667 1.0000
vt 0.7500 0.0000
vt 0.8333 0.0000
vt 0.8333 1.0000
vt 0.7500 1.0000
vt 0.8333 0.0000
vt 0.9167 0.0000
vt 0.9167 1.0000
vt 0.8333 1.0000
vt 0.9167 0.0000
vt 0.9167 1.0000
vt 1.0000 1.0000
vt 1.0000 0.0000
vt 0.0000 0.0000
vt 0.0833 0.0000
vt 0.0833 1.0000
vt 0.0000 1.0000
vt 0.0833 0.0000
vt 0.1667 0.0000
vt 0.1667 1.0000
vt 0.0833 1.0000
vt 0.1667 0.0000
vt 0.2500 0.0000
vt 0.2500 1.0000
vt 0.1667 1.0000
vt 0.2500 0.0000
vt 0.3333 0.0000
vt 0.3333 1.0000
vt 0.2500 1.0000
vt 0.3333 0.0000
vt 0.4167 0.0000
vt 0.4167 1.0000
vt 0.3333 1.0000
vt 0.4167 0.0000
vt 0.5000 0.0000
vt 0.5000 1.0000
vt 0.4167 1.0000
vt 0.5000 0.0000
vt 0.5833 0.0000
vt 0.5833 1.0000
vt 0.5000 1.0000
vt 0.5833 0.0000
vt 0.6667 0.0000
vt 0.6667 1.0000
vt 0.5833 1.0000
vt 0.6667 0.0000
vt 0.7500 0.0000
vt 0.7500 1.0000
vt 0.6667 1.0000
vt 0.7500 0.0000
vt 0.8333 0.0000
vt 0.8333 1.0000
vt 0.7500 1.0000
vt 0.8333 0.0000
vt 0.9167 0.0000
vt 0.9167 1.0000
vt 0.8333 1.0000
vt 0.9167 0.0000
vt 0.9167 1.0000
vt 1.0000 1.0000
vt 1.0000 0.0000
vt 0.5000 0.5000
vt 1.0000 0.5000
vt 0.9330 0.7500
vt 0.5000 0.5000
vt 0.9330 0.7500
vt 1.0000 0.5000
vt 0.5000 0.5000
vt 0.9330 0.7500
vt 0.7500 0.9330
vt 0.5000 0.5000
vt 0.7500 0.9330
vt 0.9330 0.7500
vt 0.5000 0.5000
vt 0.7500 0.9330
vt 0.5000 1.0000
vt 0.5000 0.5000
vt 0.5000 1.0000
vt 0.7500 0.9330
vt 0.5000 0.5000
vt 0.5000 1.0000
vt 0.2500 0.9330
vt 0.5000 0.5000
vt 0.2500 0.9330
vt 0.5000 1.0000
vt 0.5000 0.5000
vt 0.2500 0.9330
vt 0.0670 0.7500
vt 0.5000 0.5000
vt 0.0670 0.7500
vt 0.2500 0.9330
vt 0.5000 0.5000
vt 0.0670 0.7500
vt 0.0000 0.5000
vt 0.5000 0.5000
vt 0.0000 0.5000
vt 0.0670 0.7500
vt 0.5000 0.5000
vt 0.0000 0.5000
vt 0.0670 0.2500
vt 0.5000 0.5000
vt 0.0670 0.2500
vt 0.0000 0.5000
vt 0.5000 0.5000
vt 0.0670 0.2500
vt 0.2500 0.0670
vt 0.5000 0.5000
vt 0.2500 0.0670
vt 0.0670 0.2500
vt 0.5000 0.5000
vt 0.2500 0.0670
vt 0.5000 0.0000
vt 0.5000 0.5000
vt 0.5000 0.0000
vt 0.2500 0.0670
vt 0.5000 0.5000
vt 0.5000 0.0000
vt 0.7500 0.0670
vt 0.5000 0.5000
vt 0.7500 0.0670
vt 0.5000 0.0000
vt 0.5000 0.5000
vt 0.7500 0.0670
vt 0.9330 0.2500
vt 0.5000 0.5000
vt 0.9330 0.2500
vt 0.7500 0.0670
vt 0.5000 0.5000
vt 0.9330 0.2500
vt 1.0000 0.5000
vt 0.5000 0.5000
vt 1.0000 0.5000
vt 0.9330 0.2500
vt 0.0000 0.0000
vt 0.7600 0.0000
vt 0.7600 0.1600
vt 0.0000 0.1600
vt 0.0000 0.0000
vt 0.7600 0.0000
vt 0.7600 0.1600
vt 0.0000 0.1600
vt 0.0000 0.0000
vt 0.0000 0.0800
vt 0.7600 0.0800
vt 0.7600 0.0000
vt 0.0000 0.0000
vt 0.0000 0.0800
vt 0.7600 0.0800
vt 0.7600 0.0000
vt 0.0000 0.0000
vt 0.0000 0.0800
vt 0.1600 0.0800
vt 0.1600 0.0000
vt 0.0000 0.0000
vt 0.0000 0.0800
vt 0.1600 0.0800
vt 0.1600 0.0000
vt 0.0000 0.0000
vt 0.0400 0.0000
vt 0.0400 0.0700
vt 0.0000 0.0700
vt 0.0000 0.0000
vt 0.0400 0.0000
vt 0.0400 0.0700
vt 0.0000 0.0700
vt 0.0000 0.0000
vt 0.0000 3.4000
vt 0.0400 3.4000
vt 0.0400 0.0000
vt 0.0000 0.0000
vt 0.0000 3.4000
vt 0.0400 3.4000
vt 0.0400 0.0000
vt 0.0000 0.0000
vt 0.0000 3.4000
vt 0.0700 3.4000
vt 0.0700 0.0000
vt 0.0000 0.0000
vt 0.0000 3.4000
vt 0.0700 3.4000
vt 0.0700 0.0000
vt 0.0000 0.0000
vt 0.0400 0.0000
vt 0.0400 0.0700
vt 0.0000 0.0700
vt 0.0000 0.0000
vt 0.0400 0.0000
vt 0.0400 0.0700
vt 0.0000 0.0700
vt 0.0000 0.0000
vt 0.0000 3.4000
vt 0.0400 3.4000
vt 0.0400 0.0000
vt 0.0000 0.0000
vt 0.0000 3.4000
vt 0.0400 3.4000
vt 0.0400 0.0000
vt 0.0000 0.0000
vt 0.0000 3.4000
vt 0.0700 3.4000
vt 0.0700 0.0000
vt 0.0000 0.0000
vt 0.0000 3.4000
vt 0.0700 3.4000
vt 0.0700 0.0000
vt 0.0000 0.0000
vt 0.5500 0.0000
vt 0.5500 0.0400
vt 0.0000 0.0400
vt 0.0000 0.0000
vt 0.5500 0.0000
vt 0.5500 0.0400
vt 0.0000 0.0400
vt 0.0000 0.0000
vt 0.0000 0.0360
vt 0.5500 0.0360
vt 0.5500 0.0000
vt 0.0000 0.0000
vt 0.0000 0.0360
vt 0.5500 0.0360
vt 0.5500 0.0000
vt 0.0000 0.0000
vt 0.0000 0.0360
vt 0.0400 0.0360
vt 0.0400 0.0000
vt 0.0000 0.0000
vt 0.0000 0.0360
vt 0.0400 0.0360
vt 0.0400 0.0000
vt 0.0000 0.0000
vt 0.5500 0.0000
vt 0.5500 0.0400
vt 0.0000 0.0400
vt 0.0000 0.0000
vt 0.5500 0.0000
vt 0.5500 0.0400
vt 0.0000 0.0400
vt 0.0000 0.0000
vt 0.0000 0.0360
vt 0.5500 0.0360
vt 0.5500 0.0000
vt 0.0000 0.0000
vt 0.0000 0.0360
vt 0.5500 0.0360
vt 0.5500 0.0000
vt 0.0000 0.0000
vt 0.0000 0.0360
vt 0.0400 0.0360
vt 0.0400 0.0000
vt 0.0000 0.0000
vt 0.0000 0.0360
vt 0.0400 0.0360
vt 0.0400 0.0000
vt 0.0000 0.0000
vt 0.5500 0.0000
vt 0.5500 0.0400
vt 0.0000 0.0400
vt 0.0000 0.0000
vt 0.5500 0.0000
vt 0.5500 0.0400
vt 0.0000 0.0400
vt 0.0000 0.0000
vt 0.0000 0.0360
vt 0.5500 0.0360
vt 0.5500 0.0000
vt 0.0000 0.0000
vt 0.0000 0.0360
vt 0.5500 0.0360
vt 0.5500 0.0000
vt 0.0000 0.0000
vt 0.0000 0.0360
vt 0.0400 0.0360
vt 0.0400 0.0000
vt 0.0000 0.0000
vt 0.0000 0.0360
vt 0.0400 0.0360
vt 0.0400 0.0000
vt 0.0000 0.0000
vt 0.5500 0.0000
vt 0.5500 0.0400
vt 0.0000 0.0400
vt 0.0000 0.0000
vt 0.5500 0.0000
vt 0.5500 0.0400
vt 0.0000 0.0400
vt 0.0000 0.0000
vt 0.0000 0.0360
vt 0.5500 0.0360
vt 0.5500 0.0000
vt 0.0000 0.0000
vt 0.0000 0.0360
vt 0.5500 0.0360
vt 0.5500 0.0000
vt 0.0000 0.0000
vt 0.0000 0.0360
vt 0.0400 0.0360
vt 0.0400 0.0000
vt 0.0000 0.0000
vt 0.0000 0.0360
vt 0.0400 0.0360
vt 0.0400 0.0000
vt 0.0000 0.0000
vt 0.5500 0.0000
vt 0.5500 0.0400
vt 0.0000 0.0400
vt 0.0000 0.0000
vt 0.5500 0.0000
vt 0.5500 0.0400
vt 0.0000 0.0400
vt 0.0000 0.0000
vt 0.0000 0.0360
vt 0.5500 0.0360
vt 0.5500 0.0000
vt 0.0000 0.0000
vt 0.0000 0.0360
vt 0.5500 0.0360
vt 0.5500 0.0000
vt 0.0000 0.0000
vt 0.0000 0.0360
vt 0.0400 0.0360
vt 0.0400 0.0000
vt 0.0000 0.0000
vt 0.0000 0.0360
vt 0.0400 0.0360
vt 0.0400 0.0000
vt 0.0000 0.0000
vt 0.5500 0.0000
vt 0.5500 0.0400
vt 0.0000 0.0400
vt 0.0000 0.0000
vt 0.5500 0.0000
vt 0.5500 0.0400
vt 0.0000 0.0400
vt 0.0000 0.0000
vt 0.0000 0.0360
vt 0.5500 0.0360
vt 0.5500 0.0000
vt 0.0000 0.0000
vt 0.0000 0.0360
vt 0.5500 0.0360
vt 0.5500 0.0000
vt 0.0000 0.0000
vt 0.0000 0.0360
vt 0.0400 0.0360
vt 0.0400 0.0000
vt 0.0000 0.0000
vt 0.0000 0.0360
vt 0.0400 0.0360
vt 0.0400 0.0000
vt 0.0000 0.0000
vt 0.5500 0.0000
vt 0.5500 0.0400
vt 0.0000 0.0400
vt 0.0000 0.0000
vt 0.5500 0.0000
vt 0.5500 0.0400
vt 0.0000 0.0400
vt 0.0000 0.0000
vt 0.0000 0.0360
vt 0.5500 0.0360
vt 0.5500 0.0000
vt 0.0000 0.0000
vt 0.0000 0.0360
vt 0.5500 0.0360
vt 0.5500 0.0000
vt 0.0000 0.0000
vt 0.0000 0.0360
vt 0.0400 0.0360
vt 0.0400 0.0000
vt 0.0000 0.0000
vt 0.0000 0.0360
vt 0.0400 0.0360
vt 0.0400 0.0000
vt 0.0000 0.0000
vt 0.5500 0.0000
vt 0.5500 0.0400
vt 0.0000 0.0400
vt 0.0000 0.0000
vt 0.5500 0.0000
vt 0.5500 0.0400
vt 0.0000 0.0400
vt 0.0000 0.0000
vt 0.0000 0.0360
vt 0.5500 0.0360
vt 0.5500 0.0000
vt 0.0000 0.0000
vt 0.0000 0.0360
vt 0.5500 0.0360
vt 0.5500 0.0000
vt 0.0000 0.0000
vt 0.0000 0.0360
vt 0.0400 0.0360
vt 0.0400 0.0000
vt 0.0000 0.0000
vt 0.0000 0.0360
vt 0.0400 0.0360
vt 0.0400 0.0000
vt 0.0000 0.0000
vt 0.5500 0.0000
vt 0.5500 0.0400
vt 0.0000 0.0400
vt 0.0000 0.0000
vt 0.5500 0.0000
vt 0.5500 0.0400
vt 0.0000 0.0400
vt 0.0000 0.0000
vt 0.0000 0.0360
vt 0.5500 0.0360
vt 0.5500 0.0000
vt 0.0000 0.0000
vt 0.0000 0.0360
vt 0.5500 0.0360
vt 0.5500 0.0000
vt 0.0000 0.0000
vt 0.0000 0.0360
vt 0.0400 0.0360
vt 0.0400 0.0000
vt 0.0000 0.0000
vt 0.0000 0.0360
vt 0.0400 0.0360
vt 0.0400 0.0000
vt 0.0000 0.0000
vt 0.5500 0.0000
vt 0.5500 0.0400
vt 0.0000 0.0400
vt 0.0000 0.0000
vt 0.5500 0.0000
vt 0.5500 0.0400
vt 0.0000 0.0400
vt 0.0000 0.0000
vt 0.0000 0.0360
vt 0.5500 0.0360
vt 0.5500 0.0000
vt 0.0000 0.0000
vt 0.0000 0.0360
vt 0.5500 0.0360
vt 0.5500 0.0000
vt 0.0000 0.0000
vt 0.0000 0.0360
vt 0.0400 0.0360
vt 0.0400 0.0000
vt 0.0000 0.0000
vt 0.0000 0.0360
vt 0.0400 0.0360
vt 0.0400 0.0000
vt 0.0000 0.0000
vt 0.0700 0.0000
vt 0.0700 0.0400
vt 0.0000 0.0400
vt 0.0000 0.0000
vt 0.0700 0.0000
vt 0.0700 0.0400
vt 0.0000 0.0400
vt 0.0000 0.0000
vt 0.0000 3.4000
vt 0.0700 3.4000
vt 0.0700 0.0000
vt 0.0000 0.0000
vt 0.0000 3.4000
vt 0.0700 3.4000
vt 0.0700 0.0000
vt 0.0000 0.0000
vt 0.0000 3.4000
vt 0.0400 3.4000
vt 0.0400 0.0000
vt 0.0000 0.0000
vt 0.0000 3.4000
vt 0.0400 3.4000
vt 0.0400 0.0000
vt 0.0000 0.0000
vt 0.0700 0.0000
vt 0.0700 0.0400
vt 0.0000 0.0400
vt 0.0000 0.0000
vt 0.0700 0.0000
vt 0.0700 0.0400
vt 0.0000 0.0400
vt 0.0000 0.0000
vt 0.0000 3.4000
vt 0.0700 3.4000
vt 0.0700 0.0000
vt 0.0000 0.0000
vt 0.0000 3.4000
vt 0.0700 3.4000
vt 0.0700 0.0000
vt 0.0000 0.0000
vt 0.0000 3.4000
vt 0.0400 3.4000
vt 0.0400 0.0000
vt 0.0000 0.0000
vt 0.0000 3.4000
vt 0.0400 3.4000
vt 0.0400 0.0000
vt 0.0000 0.0000
vt 0.0400 0.0000
vt 0.0400 0.5500
vt 0.0000 0.5500
vt 0.0000 0.0000
vt 0.0400 0.0000
vt 0.0400 0.5500
vt 0.0000 0.5500
vt 0.0000 0.0000
vt 0.0000 0.0360
vt 0.0400 0.0360
vt 0.0400 0.0000
vt 0.0000 0.0000
vt 0.0000 0.0360
vt 0.0400 0.0360
vt 0.0400 0.0000
vt 0.0000 0.0000
vt 0.0000 0.0360
vt 0.5500 0.0360
vt 0.5500 0.0000
vt 0.0000 0.0000
vt 0.0000 0.0360
vt 0.5500 0.0360
vt 0.5500 0.0000
vt 0.0000 0.0000
vt 0.0400 0.0000
vt 0.0400 0.5500
vt 0.0000 0.5500
vt 0.0000 0.0000
vt 0.0400 0.0000
vt 0.0400 0.5500
vt 0.0000 0.5500
vt 0.0000 0.0000
vt 0.0000 0.0360
vt 0.0400 0.0360
vt 0.0400 0.0000
vt 0.0000 0.0000
vt 0.0000 0.0360
vt 0.0400 0.0360
vt 0.0400 0.0000
vt 0.0000 0.0000
vt 0.0000 0.0360
vt 0.5500 0.0360
vt 0.5500 0.0000
vt 0.0000 0.0000
vt 0.0000 0.0360
vt 0.5500 0.0360
vt 0.5500 0.0000
vt 0.0000 0.0000
vt 0.0400 0.0000
vt 0.0400 0.5500
vt 0.0000 0.5500
vt 0.0000 0.0000
vt 0.0400 0.0000
vt 0.0400 0.5500
vt 0.0000 0.5500
vt 0.0000 0.0000
vt 0.0000 0.0360
vt 0.0400 0.0360
vt 0.0400 0.0000
vt 0.0000 0.0000
vt 0.0000 0.0360
vt 0.0400 0.0360
vt 0.0400 0.0000
vt 0.0000 0.0000
vt 0.0000 0.0360
vt 0.5500 0.0360
vt 0.5500 0.0000
vt 0.0000 0.0000
vt 0.0000 0.0360
vt 0.5500 0.0360
vt 0.5500 0.0000
vt 0.0000 0.0000
vt 0.0400 0.0000
vt 0.0400 0.5500
vt 0.0000 0.5500
vt 0.0000 0.0000
vt 0.0400 0.0000
vt 0.0400 0.5500
vt 0.0000 0.5500
vt 0.0000 0.0000
vt 0.0000 0.0360
vt 0.0400 0.0360
vt 0.0400 0.0000
vt 0.0000 0.0000
vt 0.0000 0.0360
vt 0.0400 0.0360
vt 0.0400 0.0000
vt 0.0000 0.0000
vt 0.0000 0.0360
vt 0.5500 0.0360
vt 0.5500 0.0000
vt 0.0000 0.0000
vt 0.0000 0.0360
vt 0.5500 0.0360
vt 0.5500 0.0000
vt 0.0000 0.0000
vt 0.0400 0.0000
vt 0.0400 0.5500
vt 0.0000 0.5500
vt 0.0000 0.0000
vt 0.0400 0.0000
vt 0.0400 0.5500
vt 0.0000 0.5500
vt 0.0000 0.0000
vt 0.0000 0.0360
vt 0.0400 0.0360
vt 0.0400 0.0000
vt 0.0000 0.0000
vt 0.0000 0.0360
vt 0.0400 0.0360
vt 0.0400 0.0000
vt 0.0000 0.0000
vt 0.0000 0.0360
vt 0.5500 0.0360
vt 0.5500 0.0000
vt 0.0000 0.0000
vt 0.0000 0.0360
vt 0.5500 0.0360
vt 0.5500 0.0000
vt 0.0000 0.0000
vt 0.0400 0.0000
vt 0.0400 0.5500
vt 0.0000 0.5500
vt 0.0000 0.0000
vt 0.0400 0.0000
vt 0.0400 0.5500
vt 0.0000 0.5500
vt 0.0000 0.0000
vt 0.0000 0.0360
vt 0.0400 0.0360
vt 0.0400 0.0000
vt 0.0000 0.0000
vt 0.0000 0.0360
vt 0.0400 0.0360
vt 0.0400 0.0000
vt 0.0000 0.0000
vt 0.0000 0.0360
vt 0.5500 0.0360
vt 0.5500 0.0000
vt 0.0000 0.0000
vt 0.0000 0.0360
vt 0.5500 0.0360
vt 0.5500 0.0000
vt 0.0000 0.0000
vt 0.0400 0.0000
vt 0.0400 0.5500
vt 0.0000 0.5500
vt 0.0000 0.0000
vt 0.0400 0.0000
vt 0.0400 0.5500
vt 0.0000 0.5500
vt 0.0000 0.0000
vt 0.0000 0.0360
vt 0.0400 0.0360
vt 0.0400 0.0000
vt 0.0000 0.0000
vt 0.0000 0.0360
vt 0.0400 0.0360
vt 0.0400 0.0000
vt 0.0000 0.0000
vt 0.0000 0.0360
vt 0.5500 0.0360
vt 0.5500 0.0000
vt 0.0000 0.0000
vt 0.0000 0.0360
vt 0.5500 0.0360
vt 0.5500 0.0000
vt 0.0000 0.0000
vt 0.0400 0.0000
vt 0.0400 0.5500
vt 0.0000 0.5500
vt 0.0000 0.0000
vt 0.0400 0.0000
vt 0.0400 0.5500
vt 0.0000 0.5500
vt 0.0000 0.0000
vt 0.0000 0.0360
vt 0.0400 0.0360
vt 0.0400 0.0000
vt 0.0000 0.0000
vt 0.0000 0.0360
vt 0.0400 0.0360
vt 0.0400 0.0000
vt 0.0000 0.0000
vt 0.0000 0.0360
vt 0.5500 0.0360
vt 0.5500 0.0000
vt 0.0000 0.0000
vt 0.0000 0.0360
vt 0.5500 0.0360
vt 0.5500 0.0000
vt 0.0000 0.0000
vt 0.0400 0.0000
vt 0.0400 0.5500
vt 0.0000 0.5500
vt 0.0000 0.0000
vt 0.0400 0.0000
vt 0.0400 0.5500
vt 0.0000 0.5500
vt 0.0000 0.0000
vt 0.0000 0.0360
vt 0.0400 0.0360
vt 0.0400 0.0000
vt 0.0000 0.0000
vt 0.0000 0.0360
vt 0.0400 0.0360
vt 0.0400 0.0000
vt 0.0000 0.0000
vt 0.0000 0.0360
vt 0.5500 0.0360
vt 0.5500 0.0000
vt 0.0000 0.0000
vt 0.0000 0.0360
vt 0.5500 0.0360
vt 0.5500 0.0000
vt 0.0000 0.0000
vt 0.0400 0.0000
vt 0.0400 0.5500
vt 0.0000 0.5500
vt 0.0000 0.0000
vt 0.0400 0.0000
vt 0.0400 0.5500
vt 0.0000 0.5500
vt 0.0000 0.0000
vt 0.0000 0.0360
vt 0.0400 0.0360
vt 0.0400 0.0000
vt 0.0000 0.0000
vt 0.0000 0.0360
vt 0.0400 0.0360
vt 0.0400 0.0000
vt 0.0000 0.0000
vt 0.0000 0.0360
vt 0.5500 0.0360
vt 0.5500 0.0000
vt 0.0000 0.0000
vt 0.0000 0.0360
vt 0.5500 0.0360
vt 0.5500 0.0000

vn 0.0000 0.0000 1.0000
vn 0.0000 0.0000 1.0000
vn 0.0000 0.0000 1.0000
vn 0.0000 -1.0000 0.0000
vn 1.0000 0.0000 0.0000
vn 0.0000 0.0000 1.0000
vn 0.0000 0.0000 1.0000
vn 0.0000 0.0000 1.0000
vn 0.0000 1.0000 0.0000
vn 0.0000 1.0000 0.0000
vn 0.0000 1.0000 0.0000
vn -1.0000 0.0000 0.0000
vn -1.0000 0.0000 0.0000
vn -1.0000 0.0000 0.0000
vn 0.0000 -1.0000 0.0000
vn 1.0000 0.0000 0.0000
vn -1.0000 0.0000 0.0000
vn 0.0000 1.0000 0.0000
vn 0.0000 0.0000 -1.0000
vn 0.0000 0.0000 -1.0000
vn -0.9808 0.1951 0.0000
vn -0.8315 0.5556 0.0000
vn -0.5556 0.8315 0.0000
vn -0.1951 0.9808 0.0000
vn 0.1951 0.9808 0.0000
vn 0.5556 0.8315 0.0000
vn 0.8315 0.5556 0.0000
vn 0.9808 0.1951 0.0000
vn 0.0000 0.0000 1.0000
vn 0.0000 0.0000 -1.0000
vn 0.0000 0.0000 1.0000
vn 0.0000 0.0000 -1.0000
vn 0.0000 0.0000 1.0000
vn 0.0000 0.0000 -1.0000
vn 0.0000 0.0000 1.0000
vn 0.0000 0.0000 -1.0000
vn 0.0000 0.0000 1.0000
vn 0.0000 0.0000 -1.0000
vn 0.0000 0.0000 1.0000
vn 0.0000 0.0000 -1.0000
vn 0.0000 0.0000 1.0000
vn 0.0000 0.0000 -1.0000
vn 0.0000 0.0000 1.0000
vn 0.0000 0.0000 -1.0000
vn -0.1951 -0.9808 0.0000
vn -0.5556 -0.8315 0.0000
vn -0.8315 -0.5556 0.0000
vn -0.9808 -0.1951 0.0000
vn -0.9808 0.1951 0.0000
vn -0.8315 0.5556 0.0000
vn -0.5556 0.8315 0.0000
vn -0.1951 0.9808 0.0000
vn 0.0000 0.0000 1.0000
vn 0.0000 0.0000 -1.0000
vn 0.0000 0.0000 1.0000
vn 0.0000 0.0000 -1.0000
vn 0.0000 0.0000 1.0000
vn 0.0000 0.0000 -1.0000
vn 0.0000 0.0000 1.0000
vn 0.0000 0.0000 -1.0000
vn 0.0000 0.0000 1.0000
vn 0.0000 0.0000 -1.0000
vn 0.0000 0.0000 1.0000
vn 0.0000 0.0000 -1.0000
vn 0.0000 0.0000 1.0000
vn 0.0000 0.0000 -1.0000
vn 0.0000 0.0000 1.0000
vn 0.0000 0.0000 -1.0000
vn 0.9659 0.2588 0.0000
vn 0.7071 0.7071 0.0000
vn 0.2588 0.9659 0.0000
vn -0.2588 0.9659 0.0000
vn -0.7071 0.7071 0.0000
vn -0.9659 0.2588 0.0000
vn -0.9659 -0.2588 0.0000
vn -0.7071 -0.7071 0.0000
vn -0.2588 -0.9659 0.0000
vn 0.2588 -0.9659 0.0000
vn 0.7071 -0.7071 0.0000
vn -0.9659 0.2588 0.0000
vn 0.0000 0.0000 1.0000
vn 0.0000 0.0000 -1.0000
vn 0.0000 0.0000 1.0000
vn 0.0000 0.0000 -1.0000
vn 0.0000 0.0000 1.0000
vn 0.0000 0.0000 -1.0000
vn 0.0000 0.0000 1.0000
vn 0.0000 0.0000 -1.0000
vn 0.0000 0.0000 1.0000
vn 0.0000 0.0000 -1.0000
vn 0.0000 0.0000 1.0000
vn 0.0000 0.0000 -1.0000
vn 0.0000 0.0000 1.0000
vn 0.0000 0.0000 -1.0000
vn 0.0000 0.0000 1.0000
vn 0.0000 0.0000 -1.0000
vn 0.0000 0.0000 1.0000
vn 0.0000 0.0000 -1.0000
vn 0.0000 0.0000 1.0000
vn 0.0000 0.0000 -1.0000
vn 0.0000 0.0000 1.0000
vn 0.0000 0.0000 -1.0000
vn 0.0000 0.0000 1.0000
vn 0.0000 0.0000 -1.0000
vn 0.9659 0.2588 0.0000
vn 0.7071 0.7071 0.0000
vn 0.2588 0.9659 0.0000
vn -0.2588 0.9659 0.0000
vn -0.7071 0.7071 0.0000
vn -0.9659 0.2588 0.0000
vn -0.9659 -0.2588 0.0000
vn -0.7071 -0.7071 0.0000
vn -0.2588 -0.9659 0.0000
vn 0.2588 -0.9659 0.0000
vn 0.7071 -0.7071 0.0000
vn -0.9659 0.2588 0.0000
vn 0.9659 0.2588 0.0000
vn 0.7071 0.7071 0.0000
vn 0.2588 0.9659 0.0000
vn -0.2588 0.9659 0.0000
vn -0.7071 0.7071 0.0000
vn -0.9659 0.2588 0.0000
vn -0.9659 -0.2588 0.0000
vn -0.7071 -0.7071 0.0000
vn -0.2588 -0.9659 0.0000
vn 0.2588 -0.9659 0.0000
vn 0.7071 -0.7071 0.0000
vn -0.9659 0.2588 0.0000
vn 0.0000 0.0000 1.0000
vn 0.0000 0.0000 -1.0000
vn 0.0000 0.0000 1.0000
vn 0.0000 0.0000 -1.0000
vn 0.0000 0.0000 1.0000
vn 0.0000 0.0000 -1.0000
vn 0.0000 0.0000 1.0000
vn 0.0000 0.0000 -1.0000
vn 0.0000 0.0000 1.0000
vn 0.0000 0.0000 -1.0000
vn 0.0000 0.0000 1.0000
vn 0.0000 0.0000 -1.0000
vn 0.0000 0.0000 1.0000
vn 0.0000 0.0000 -1.0000
vn 0.0000 0.0000 1.0000
vn 0.0000 0.0000 -1.0000
vn 0.0000 0.0000 1.0000
vn 0.0000 0.0000 -1.0000
vn 0.0000 0.0000 1.0000
vn 0.0000 0.0000 -1.0000
vn 0.0000 0.0000 1.0000
vn 0.0000 0.0000 -1.0000
vn 0.0000 0.0000 1.0000
vn 0.0000 0.0000 -1.0000
vn 0.0000 0.0000 1.0000
vn 0.0000 0.0000 -1.0000
vn 0.0000 1.0000 0.0000
vn 0.0000 -1.0000 0.0000
vn -1.0000 0.0000 0.0000
vn 1.0000 0.0000 0.0000
vn 0.9659 0.2588 0.0000
vn 0.7071 0.7071 0.0000
vn 0.2588 0.9659 0.0000
vn -0.2588 0.9659 0.0000
vn -0.7071 0.7071 0.0000
vn -0.9659 0.2588 0.0000
vn -0.9659 -0.2588 0.0000
vn -0.7071 -0.7071 0.0000
vn -0.2588 -0.9659 0.0000
vn 0.2588 -0.9659 0.0000
vn 0.7071 -0.7071 0.0000
vn -0.9659 0.2588 0.0000
vn 0.0000 0.0000 1.0000
vn 0.0000 0.0000 -1.0000
vn 0.0000 0.0000 1.0000
vn 0.0000 0.0000 -1.0000
vn 0.0000 0.0000 1.0000
vn 0.0000 0.0000 -1.0000
vn 0.0000 0.0000 1.0000
vn 0.0000 0.0000 -1.0000
vn 0.0000 0.0000 1.0000
vn 0.0000 0.0000 -1.0000
vn 0.0000 0.0000 1.0000
vn 0.0000 0.0000 -1.0000
vn 0.0000 0.0000 1.0000
vn 0.0000 0.0000 -1.0000
vn 0.0000 0.0000 1.0000
vn 0.0000 0.0000 -1.0000
vn 0.0000 0.0000 1.0000
vn 0.0000 0.0000 -1.0000
vn 0.0000 0.0000 1.0000
vn 0.0000 0.0000 -1.0000
vn 0.0000 0.0000 1.0000
vn 0.0000 0.0000 -1.0000
vn 0.0000 0.0000 1.0000
vn 0.0000 0.0000 -1.0000
vn 0.9659 0.2588 0.0000
vn 0.7071 0.7071 0.0000
vn 0.2588 0.9659 0.0000
vn -0.2588 0.9659 0.0000
vn -0.7071 0.7071 0.0000
vn -0.9659 0.2588 0.0000
vn -0.9659 -0.2588 0.0000
vn -0.7071 -0.7071 0.0000
vn -0.2588 -0.9659 0.0000
vn 0.2588 -0.9659 0.0000
vn 0.7071 -0.7071 0.0000
vn -0.9659 0.2588 0.0000
vn 0.9659 0.2588 0.0000
vn 0.7071 0.7071 0.0000
vn 0.2588 0.9659 0.0000
vn -0.2588 0.9659 0.0000
vn -0.7071 0.7071 0.0000
vn -0.9659 0.2588 0.0000
vn -0.9659 -0.2588 0.0000
vn -0.7071 -0.7071 0.0000
vn -0.2588 -0.9659 0.0000
vn 0.2588 -0.9659 0.0000
vn 0.7071 -0.7071 0.0000
vn -0.9659 0.2588 0.0000
vn 0.0000 0.0000 1.0000
vn 0.0000 0.0000 -1.0000
vn 0.0000 0.0000 1.0000
vn 0.0000 0.0000 -1.0000
vn 0.0000 0.0000 1.0000
vn 0.0000 0.0000 -1.0000
vn 0.0000 0.0000 1.0000
vn 0.0000 0.0000 -1.0000
vn 0.0000 0.0000 1.0000
vn 0.0000 0.0000 -1.0000
vn 0.0000 0.0000 1.0000
vn 0.0000 0.0000 -1.0000
vn 0.0000 0.0000 1.0000
vn 0.0000 0.0000 -1.0000
vn 0.0000 0.0000 1.0000
vn 0.0000 0.0000 -1.0000
vn 0.0000 0.0000 1.0000
vn 0.0000 0.0000 -1.0000
vn 0.0000 0.0000 1.0000
vn 0.0000 0.0000 -1.0000
vn 0.0000 0.0000 1.0000
vn 0.0000 0.0000 -1.0000
vn 0.0000 0.0000 1.0000
vn 0.0000 0.0000 -1.0000
vn 0.0000 0.0000 1.0000
vn 0.0000 0.0000 -1.0000
vn 0.0000 1.0000 0.0000
vn 0.0000 -1.0000 0.0000
vn -1.0000 0.0000 0.0000
vn 1.0000 0.0000 0.0000
vn 0.0000 0.0000 1.0000
vn 0.0000 0.0000 -1.0000
vn 0.0000 1.0000 0.0000
vn 0.0000 -1.0000 0.0000
vn -1.0000 0.0000 0.0000
vn 1.0000 0.0000 0.0000
vn 0.0000 0.0000 1.0000
vn 0.0000 0.0000 -1.0000
vn 0.0000 1.0000 0.0000
vn 0.0000 -1.0000 0.0000
vn -1.0000 0.0000 0.0000
vn 1.0000 0.0000 0.0000
vn 0.0000 0.0000 1.0000
vn 0.0000 0.0000 -1.0000
vn 0.0000 1.0000 0.0000
vn 0.0000 -1.0000 0.0000
vn -1.0000 0.0000 0.0000
vn 1.0000 0.0000 0.0000
vn 0.0000 0.0000 1.0000
vn 0.0000 0.0000 -1.0000
vn 0.0000 1.0000 0.0000
vn 0.0000 -1.0000 0.0000
vn -1.0000 0.0000 0.0000
vn 1.0000 0.0000 0.0000
vn 0.0000 0.0000 1.0000
vn 0.0000 0.0000 -1.0000
vn 0.0000 1.0000 0.0000
vn 0.0000 -1.0000 0.0000
vn -1.0000 0.0000 0.0000
vn 1.0000 0.0000 0.0000
vn 0.0000 0.0000 1.0000
vn 0.0000 0.0000 -1.0000
vn 0.0000 1.0000 0.0000
vn 0.0000 -1.0000 0.0000
vn -1.0000 0.0000 0.0000
vn 1.0000 0.0000 0.0000
vn 0.0000 0.0000 1.0000
vn 0.0000 0.0000 -1.0000
vn 0.0000 1.0000 0.0000
vn 0.0000 -1.0000 0.0000
vn -1.0000 0.0000 0.0000
vn 1.0000 0.0000 0.0000
vn 0.0000 0.0000 1.0000
vn 0.0000 0.0000 -1.0000
vn 0.0000 1.0000 0.0000
vn 0.0000 -1.0000 0.0000
vn -1.0000 0.0000 0.0000
vn 1.0000 0.0000 0.0000
vn 0.0000 0.0000 1.0000
vn 0.0000 0.0000 -1.0000
vn 0.0000 1.0000 0.0000
vn 0.0000 -1.0000 0.0000
vn -1.0000 0.0000 0.0000
vn 1.0000 0.0000 0.0000
vn 0.0000 0.0000 1.0000
vn 0.0000 0.0000 -1.0000
vn 0.0000 1.0000 0.0000
vn 0.0000 -1.0000 0.0000
vn -1.0000 0.0000 0.0000
vn 1.0000 0.0000 0.0000
vn 0.0000 0.0000 1.0000
vn 0.0000 0.0000 -1.0000
vn 0.0000 1.0000 0.0000
vn 0.0000 -1.0000 0.0000
vn -1.0000 0.0000 0.0000
vn 1.0000 0.0000 0.0000
vn 0.0000 0.0000 1.0000
vn 0.0000 0.0000 -1.0000
vn 0.0000 1.0000 0.0000
vn 0.0000 -1.0000 0.0000
vn -1.0000 0.0000 0.0000
vn 1.0000 0.0000 0.0000
vn 0.0000 0.0000 1.0000
vn 0.0000 0.0000 -1.0000
vn 0.0000 1.0000 0.0000
vn 0.0000 -1.0000 0.0000
vn -1.0000 0.0000 0.0000
vn 1.0000 0.0000 0.0000
vn 0.0000 0.0000 1.0000
vn 0.0000 0.0000 -1.0000
vn 0.0000 1.0000 0.0000
vn 0.0000 -1.0000 0.0000
vn -1.0000 0.0000 0.0000
vn 1.0000 0.0000 0.0000
vn 0.0000 0.0000 1.0000
vn 0.0000 0.0000 -1.0000
vn 0.0000 1.0000 0.0000
vn 0.0000 -1.0000 0.0000
vn -1.0000 0.0000 0.0000
vn 1.0000 0.0000 0.0000
vn 0.0000 0.0000 1.0000
vn 0.0000 0.0000 -1.0000
vn 0.0000 1.0000 0.0000
vn 0.0000 -1.0000 0.0000
vn -1.0000 0.0000 0.0000
vn 1.0000 0.0000 0.0000
vn 0.0000 0.0000 1.0000
vn 0.0000 0.0000 -1.0000
vn 0.0000 1.0000 0.0000
vn 0.0000 -1.0000 0.0000
vn -1.0000 0.0000 0.0000
vn 1.0000 0.0000 0.0000
vn 0.0000 0.0000 1.0000
vn 0.0000 0.0000 -1.0000
vn 0.0000 1.0000 0.0000
vn 0.0000 -1.0000 0.0000
vn -1.0000 0.0000 0.0000
vn 1.0000 0.0000 0.0000
vn 0.0000 0.0000 1.0000
vn 0.0000 0.0000 -1.0000
vn 0.0000 1.0000 0.0000
vn 0.0000 -1.0000 0.0000
vn -1.0000 0.0000 0.0000
vn 1.0000 0.0000 0.0000
vn 0.0000 0.0000 1.0000
vn 0.0000 0.0000 -1.0000
vn 0.0000 1.0000 0.0000
vn 0.0000 -1.0000 0.0000
vn -1.0000 0.0000 0.0000
vn 1.0000 0.0000 0.0000
vn 0.0000 0.0000 1.0000
vn 0.0000 0.0000 -1.0000
vn 0.0000 1.0000 0.0000
vn 0.0000 -1.0000 0.0000
vn -1.0000 0.0000 0.0000
vn 1.0000 0.0000 0.0000
vn 0.0000 0.0000 1.0000
vn 0.0000 0.0000 -1.0000
vn 0.0000 1.0000 0.0000
vn 0.0000 -1.0000 0.0000
vn -1.0000 0.0000 0.0000
vn 1.0000 0.0000 0.0000
vn 0.0000 0.0000 1.0000
vn 0.0000 0.0000 -1.0000
vn 0.0000 1.0000 0.0000
vn 0.0000 -1.0000 0.0000
vn -1.0000 0.0000 0.0000
vn 1.0000 0.0000 0.0000
vn 0.0000 0.0000 1.0000
vn 0.0000 0.0000 -1.0000
vn 0.0000 1.0000 0.0000
vn 0.0000 -1.0000 0.0000
vn -1.0000 0.0000 0.0000
vn 1.0000 0.0000 0.0000

usemtl Quay_Curb
f 1/1/1 2/2/1 3/3/1
f 1/1/1 3/3/1 4/4/1
f 5/5/2 6/6/2 7/7/2
f 5/5/2 7/7/2 8/8/2
f 9/9/3 10/10/3 11/11/3
f 9/9/3 11/11/3 12/12/3
f 13/13/4 14/14/4 15/15/4
f 13/13/4 15/15/4 16/16/4
f 17/17/5 18/18/5 19/19/5
f 17/17/5 19/19/5 20/20/5
usemtl Quay_Deck
f 21/21/6 22/22/6 23/23/6
f 21/21/6 23/23/6 24/24/6
f 25/25/7 26/26/7 27/27/7
f 25/25/7 27/27/7 28/28/7
f 29/29/8 30/30/8 31/31/8
f 29/29/8 31/31/8 32/32/8
usemtl Quay_Wall_Upper
f 33/33/9 34/34/9 35/35/9
f 33/33/9 35/35/9 36/36/9
usemtl Quay_Wall_Tidal
f 37/37/10 38/38/10 39/39/10
f 37/37/10 39/39/10 40/40/10
usemtl Quay_Wall_Submerged
f 41/41/11 42/42/11 43/43/11
f 41/41/11 43/43/11 44/44/11
usemtl Quay_Wall_Upper
f 45/45/12 46/46/12 47/47/12
f 45/45/12 47/47/12 48/48/12
usemtl Quay_Wall_Tidal
f 49/49/13 50/50/13 51/51/13
f 49/49/13 51/51/13 52/52/13
usemtl Quay_Wall_Submerged
f 53/53/14 54/54/14 55/55/14
f 53/53/14 55/55/14 56/56/14
f 57/57/15 58/58/15 59/59/15
f 57/57/15 59/59/15 60/60/15
f 61/61/16 62/62/16 63/63/16
f 61/61/16 63/63/16 64/64/16
f 65/65/17 66/66/17 67/67/17
f 65/65/17 67/67/17 68/68/17
f 69/69/18 70/70/18 71/71/18
f 69/69/18 71/71/18 72/72/18
f 73/73/19 74/74/19 75/75/19
f 73/73/19 75/75/19 76/76/19
f 77/77/20 78/78/20 79/79/20
f 77/77/20 79/79/20 80/80/20
usemtl Fender_Rubber
f 81/81/21 82/82/21 83/83/21
f 81/81/21 83/83/21 84/84/21
f 85/85/22 86/86/22 87/87/22
f 85/85/22 87/87/22 88/88/22
f 89/89/23 90/90/23 91/91/23
f 89/89/23 91/91/23 92/92/23
f 93/93/24 94/94/24 95/95/24
f 93/93/24 95/95/24 96/96/24
f 97/97/25 98/98/25 99/99/25
f 97/97/25 99/99/25 100/100/25
f 101/101/26 102/102/26 103/103/26
f 101/101/26 103/103/26 104/104/26
f 105/105/27 106/106/27 107/107/27
f 105/105/27 107/107/27 108/108/27
f 109/109/28 110/110/28 111/111/28
f 109/109/28 111/111/28 112/112/28
f 113/113/29 114/114/29 115/115/29
f 116/116/30 117/117/30 118/118/30
f 119/119/31 120/120/31 121/121/31
f 122/122/32 123/123/32 124/124/32
f 125/125/33 126/126/33 127/127/33
f 128/128/34 129/129/34 130/130/34
f 131/131/35 132/132/35 133/133/35
f 134/134/36 135/135/36 136/136/36
f 137/137/37 138/138/37 139/139/37
f 140/140/38 141/141/38 142/142/38
f 143/143/39 144/144/39 145/145/39
f 146/146/40 147/147/40 148/148/40
f 149/149/41 150/150/41 151/151/41
f 152/152/42 153/153/42 154/154/42
f 155/155/43 156/156/43 157/157/43
f 158/158/44 159/159/44 160/160/44
f 161/161/45 162/162/45 163/163/45
f 161/161/45 163/163/45 164/164/45
f 165/165/46 166/166/46 167/167/46
f 165/165/46 167/167/46 168/168/46
f 169/169/47 170/170/47 171/171/47
f 169/169/47 171/171/47 172/172/47
f 173/173/48 174/174/48 175/175/48
f 173/173/48 175/175/48 176/176/48
f 177/177/49 178/178/49 179/179/49
f 177/177/49 179/179/49 180/180/49
f 181/181/50 182/182/50 183/183/50
f 181/181/50 183/183/50 184/184/50
f 185/185/51 186/186/51 187/187/51
f 185/185/51 187/187/51 188/188/51
f 189/189/52 190/190/52 191/191/52
f 189/189/52 191/191/52 192/192/52
f 193/193/53 194/194/53 195/195/53
f 196/196/54 197/197/54 198/198/54
f 199/199/55 200/200/55 201/201/55
f 202/202/56 203/203/56 204/204/56
f 205/205/57 206/206/57 207/207/57
f 208/208/58 209/209/58 210/210/58
f 211/211/59 212/212/59 213/213/59
f 214/214/60 215/215/60 216/216/60
f 217/217/61 218/218/61 219/219/61
f 220/220/62 221/221/62 222/222/62
f 223/223/63 224/224/63 225/225/63
f 226/226/64 227/227/64 228/228/64
f 229/229/65 230/230/65 231/231/65
f 232/232/66 233/233/66 234/234/66
f 235/235/67 236/236/67 237/237/67
f 238/238/68 239/239/68 240/240/68
usemtl Bollard_CastIron
f 241/241/69 242/242/69 243/243/69
f 241/241/69 243/243/69 244/244/69
f 245/245/70 246/246/70 247/247/70
f 245/245/70 247/247/70 248/248/70
f 249/249/71 250/250/71 251/251/71
f 249/249/71 251/251/71 252/252/71
f 253/253/72 254/254/72 255/255/72
f 253/253/72 255/255/72 256/256/72
f 257/257/73 258/258/73 259/259/73
f 257/257/73 259/259/73 260/260/73
f 261/261/74 262/262/74 263/263/74
f 261/261/74 263/263/74 264/264/74
f 265/265/75 266/266/75 267/267/75
f 265/265/75 267/267/75 268/268/75
f 269/269/76 270/270/76 271/271/76
f 269/269/76 271/271/76 272/272/76
f 273/273/77 274/274/77 275/275/77
f 273/273/77 275/275/77 276/276/77
f 277/277/78 278/278/78 279/279/78
f 277/277/78 279/279/78 280/280/78
f 281/281/79 282/282/79 283/283/79
f 281/281/79 283/283/79 284/284/79
f 285/285/80 286/286/80 287/287/80
f 285/285/80 287/287/80 288/288/80
f 289/289/81 290/290/81 291/291/81
f 292/292/82 293/293/82 294/294/82
f 295/295/83 296/296/83 297/297/83
f 298/298/84 299/299/84 300/300/84
f 301/301/85 302/302/85 303/303/85
f 304/304/86 305/305/86 306/306/86
f 307/307/87 308/308/87 309/309/87
f 310/310/88 311/311/88 312/312/88
f 313/313/89 314/314/89 315/315/89
f 316/316/90 317/317/90 318/318/90
f 319/319/91 320/320/91 321/321/91
f 322/322/92 323/323/92 324/324/92
f 325/325/93 326/326/93 327/327/93
f 328/328/94 329/329/94 330/330/94
f 331/331/95 332/332/95 333/333/95
f 334/334/96 335/335/96 336/336/96
f 337/337/97 338/338/97 339/339/97
f 340/340/98 341/341/98 342/342/98
f 343/343/99 344/344/99 345/345/99
f 346/346/100 347/347/100 348/348/100
f 349/349/101 350/350/101 351/351/101
f 352/352/102 353/353/102 354/354/102
f 355/355/103 356/356/103 357/357/103
f 358/358/104 359/359/104 360/360/104
f 361/361/105 362/362/105 363/363/105
f 361/361/105 363/363/105 364/364/105
f 365/365/106 366/366/106 367/367/106
f 365/365/106 367/367/106 368/368/106
f 369/369/107 370/370/107 371/371/107
f 369/369/107 371/371/107 372/372/107
f 373/373/108 374/374/108 375/375/108
f 373/373/108 375/375/108 376/376/108
f 377/377/109 378/378/109 379/379/109
f 377/377/109 379/379/109 380/380/109
f 381/381/110 382/382/110 383/383/110
f 381/381/110 383/383/110 384/384/110
f 385/385/111 386/386/111 387/387/111
f 385/385/111 387/387/111 388/388/111
f 389/389/112 390/390/112 391/391/112
f 389/389/112 391/391/112 392/392/112
f 393/393/113 394/394/113 395/395/113
f 393/393/113 395/395/113 396/396/113
f 397/397/114 398/398/114 399/399/114
f 397/397/114 399/399/114 400/400/114
f 401/401/115 402/402/115 403/403/115
f 401/401/115 403/403/115 404/404/115
f 405/405/116 406/406/116 407/407/116
f 405/405/116 407/407/116 408/408/116
f 409/409/117 410/410/117 411/411/117
f 409/409/117 411/411/117 412/412/117
f 413/413/118 414/414/118 415/415/118
f 413/413/118 415/415/118 416/416/118
f 417/417/119 418/418/119 419/419/119
f 417/417/119 419/419/119 420/420/119
f 421/421/120 422/422/120 423/423/120
f 421/421/120 423/423/120 424/424/120
f 425/425/121 426/426/121 427/427/121
f 425/425/121 427/427/121 428/428/121
f 429/429/122 430/430/122 431/431/122
f 429/429/122 431/431/122 432/432/122
f 433/433/123 434/434/123 435/435/123
f 433/433/123 435/435/123 436/436/123
f 437/437/124 438/438/124 439/439/124
f 437/437/124 439/439/124 440/440/124
f 441/441/125 442/442/125 443/443/125
f 441/441/125 443/443/125 444/444/125
f 445/445/126 446/446/126 447/447/126
f 445/445/126 447/447/126 448/448/126
f 449/449/127 450/450/127 451/451/127
f 449/449/127 451/451/127 452/452/127
f 453/453/128 454/454/128 455/455/128
f 453/453/128 455/455/128 456/456/128
f 457/457/129 458/458/129 459/459/129
f 460/460/130 461/461/130 462/462/130
f 463/463/131 464/464/131 465/465/131
f 466/466/132 467/467/132 468/468/132
f 469/469/133 470/470/133 471/471/133
f 472/472/134 473/473/134 474/474/134
f 475/475/135 476/476/135 477/477/135
f 478/478/136 479/479/136 480/480/136
f 481/481/137 482/482/137 483/483/137
f 484/484/138 485/485/138 486/486/138
f 487/487/139 488/488/139 489/489/139
f 490/490/140 491/491/140 492/492/140
f 493/493/141 494/494/141 495/495/141
f 496/496/142 497/497/142 498/498/142
f 499/499/143 500/500/143 501/501/143
f 502/502/144 503/503/144 504/504/144
f 505/505/145 506/506/145 507/507/145
f 508/508/146 509/509/146 510/510/146
f 511/511/147 512/512/147 513/513/147
f 514/514/148 515/515/148 516/516/148
f 517/517/149 518/518/149 519/519/149
f 520/520/150 521/521/150 522/522/150
f 523/523/151 524/524/151 525/525/151
f 526/526/152 527/527/152 528/528/152
f 529/529/153 530/530/153 531/531/153
f 529/529/153 531/531/153 532/532/153
f 533/533/154 534/534/154 535/535/154
f 533/533/154 535/535/154 536/536/154
f 537/537/155 538/538/155 539/539/155
f 537/537/155 539/539/155 540/540/155
f 541/541/156 542/542/156 543/543/156
f 541/541/156 543/543/156 544/544/156
f 545/545/157 546/546/157 547/547/157
f 545/545/157 547/547/157 548/548/157
f 549/549/158 550/550/158 551/551/158
f 549/549/158 551/551/158 552/552/158
f 553/553/159 554/554/159 555/555/159
f 553/553/159 555/555/159 556/556/159
f 557/557/160 558/558/160 559/559/160
f 557/557/160 559/559/160 560/560/160
f 561/561/161 562/562/161 563/563/161
f 561/561/161 563/563/161 564/564/161
f 565/565/162 566/566/162 567/567/162
f 565/565/162 567/567/162 568/568/162
f 569/569/163 570/570/163 571/571/163
f 569/569/163 571/571/163 572/572/163
f 573/573/164 574/574/164 575/575/164
f 573/573/164 575/575/164 576/576/164
f 577/577/165 578/578/165 579/579/165
f 577/577/165 579/579/165 580/580/165
f 581/581/166 582/582/166 583/583/166
f 581/581/166 583/583/166 584/584/166
f 585/585/167 586/586/167 587/587/167
f 585/585/167 587/587/167 588/588/167
f 589/589/168 590/590/168 591/591/168
f 589/589/168 591/591/168 592/592/168
f 593/593/169 594/594/169 595/595/169
f 593/593/169 595/595/169 596/596/169
f 597/597/170 598/598/170 599/599/170
f 597/597/170 599/599/170 600/600/170
f 601/601/171 602/602/171 603/603/171
f 604/604/172 605/605/172 606/606/172
f 607/607/173 608/608/173 609/609/173
f 610/610/174 611/611/174 612/612/174
f 613/613/175 614/614/175 615/615/175
f 616/616/176 617/617/176 618/618/176
f 619/619/177 620/620/177 621/621/177
f 622/622/178 623/623/178 624/624/178
f 625/625/179 626/626/179 627/627/179
f 628/628/180 629/629/180 630/630/180
f 631/631/181 632/632/181 633/633/181
f 634/634/182 635/635/182 636/636/182
f 637/637/183 638/638/183 639/639/183
f 640/640/184 641/641/184 642/642/184
f 643/643/185 644/644/185 645/645/185
f 646/646/186 647/647/186 648/648/186
f 649/649/187 650/650/187 651/651/187
f 652/652/188 653/653/188 654/654/188
f 655/655/189 656/656/189 657/657/189
f 658/658/190 659/659/190 660/660/190
f 661/661/191 662/662/191 663/663/191
f 664/664/192 665/665/192 666/666/192
f 667/667/193 668/668/193 669/669/193
f 670/670/194 671/671/194 672/672/194
f 673/673/195 674/674/195 675/675/195
f 673/673/195 675/675/195 676/676/195
f 677/677/196 678/678/196 679/679/196
f 677/677/196 679/679/196 680/680/196
f 681/681/197 682/682/197 683/683/197
f 681/681/197 683/683/197 684/684/197
f 685/685/198 686/686/198 687/687/198
f 685/685/198 687/687/198 688/688/198
f 689/689/199 690/690/199 691/691/199
f 689/689/199 691/691/199 692/692/199
f 693/693/200 694/694/200 695/695/200
f 693/693/200 695/695/200 696/696/200
f 697/697/201 698/698/201 699/699/201
f 697/697/201 699/699/201 700/700/201
f 701/701/202 702/702/202 703/703/202
f 701/701/202 703/703/202 704/704/202
f 705/705/203 706/706/203 707/707/203
f 705/705/203 707/707/203 708/708/203
f 709/709/204 710/710/204 711/711/204
f 709/709/204 711/711/204 712/712/204
f 713/713/205 714/714/205 715/715/205
f 713/713/205 715/715/205 716/716/205
f 717/717/206 718/718/206 719/719/206
f 717/717/206 719/719/206 720/720/206
f 721/721/207 722/722/207 723/723/207
f 721/721/207 723/723/207 724/724/207
f 725/725/208 726/726/208 727/727/208
f 725/725/208 727/727/208 728/728/208
f 729/729/209 730/730/209 731/731/209
f 729/729/209 731/731/209 732/732/209
f 733/733/210 734/734/210 735/735/210
f 733/733/210 735/735/210 736/736/210
f 737/737/211 738/738/211 739/739/211
f 737/737/211 739/739/211 740/740/211
f 741/741/212 742/742/212 743/743/212
f 741/741/212 743/743/212 744/744/212
f 745/745/213 746/746/213 747/747/213
f 745/745/213 747/747/213 748/748/213
f 749/749/214 750/750/214 751/751/214
f 749/749/214 751/751/214 752/752/214
f 753/753/215 754/754/215 755/755/215
f 753/753/215 755/755/215 756/756/215
f 757/757/216 758/758/216 759/759/216
f 757/757/216 759/759/216 760/760/216
f 761/761/217 762/762/217 763/763/217
f 761/761/217 763/763/217 764/764/217
f 765/765/218 766/766/218 767/767/218
f 765/765/218 767/767/218 768/768/218
f 769/769/219 770/770/219 771/771/219
f 772/772/220 773/773/220 774/774/220
f 775/775/221 776/776/221 777/777/221
f 778/778/222 779/779/222 780/780/222
f 781/781/223 782/782/223 783/783/223
f 784/784/224 785/785/224 786/786/224
f 787/787/225 788/788/225 789/789/225
f 790/790/226 791/791/226 792/792/226
f 793/793/227 794/794/227 795/795/227
f 796/796/228 797/797/228 798/798/228
f 799/799/229 800/800/229 801/801/229
f 802/802/230 803/803/230 804/804/230
f 805/805/231 806/806/231 807/807/231
f 808/808/232 809/809/232 810/810/232
f 811/811/233 812/812/233 813/813/233
f 814/814/234 815/815/234 816/816/234
f 817/817/235 818/818/235 819/819/235
f 820/820/236 821/821/236 822/822/236
f 823/823/237 824/824/237 825/825/237
f 826/826/238 827/827/238 828/828/238
f 829/829/239 830/830/239 831/831/239
f 832/832/240 833/833/240 834/834/240
f 835/835/241 836/836/241 837/837/241
f 838/838/242 839/839/242 840/840/242
f 841/841/243 842/842/243 843/843/243
f 841/841/243 843/843/243 844/844/243
f 845/845/244 846/846/244 847/847/244
f 845/845/244 847/847/244 848/848/244
f 849/849/245 850/850/245 851/851/245
f 849/849/245 851/851/245 852/852/245
f 853/853/246 854/854/246 855/855/246
f 853/853/246 855/855/246 856/856/246
f 857/857/247 858/858/247 859/859/247
f 857/857/247 859/859/247 860/860/247
f 861/861/248 862/862/248 863/863/248
f 861/861/248 863/863/248 864/864/248
usemtl Safety_Ladder
f 865/865/249 866/866/249 867/867/249
f 865/865/249 867/867/249 868/868/249
f 869/869/250 870/870/250 871/871/250
f 869/869/250 871/871/250 872/872/250
f 873/873/251 874/874/251 875/875/251
f 873/873/251 875/875/251 876/876/251
f 877/877/252 878/878/252 879/879/252
f 877/877/252 879/879/252 880/880/252
f 881/881/253 882/882/253 883/883/253
f 881/881/253 883/883/253 884/884/253
f 885/885/254 886/886/254 887/887/254
f 885/885/254 887/887/254 888/888/254
f 889/889/255 890/890/255 891/891/255
f 889/889/255 891/891/255 892/892/255
f 893/893/256 894/894/256 895/895/256
f 893/893/256 895/895/256 896/896/256
f 897/897/257 898/898/257 899/899/257
f 897/897/257 899/899/257 900/900/257
f 901/901/258 902/902/258 903/903/258
f 901/901/258 903/903/258 904/904/258
f 905/905/259 906/906/259 907/907/259
f 905/905/259 907/907/259 908/908/259
f 909/909/260 910/910/260 911/911/260
f 909/909/260 911/911/260 912/912/260
f 913/913/261 914/914/261 915/915/261
f 913/913/261 915/915/261 916/916/261
f 917/917/262 918/918/262 919/919/262
f 917/917/262 919/919/262 920/920/262
f 921/921/263 922/922/263 923/923/263
f 921/921/263 923/923/263 924/924/263
f 925/925/264 926/926/264 927/927/264
f 925/925/264 927/927/264 928/928/264
f 929/929/265 930/930/265 931/931/265
f 929/929/265 931/931/265 932/932/265
f 933/933/266 934/934/266 935/935/266
f 933/933/266 935/935/266 936/936/266
f 937/937/267 938/938/267 939/939/267
f 937/937/267 939/939/267 940/940/267
f 941/941/268 942/942/268 943/943/268
f 941/941/268 943/943/268 944/944/268
f 945/945/269 946/946/269 947/947/269
f 945/945/269 947/947/269 948/948/269
f 949/949/270 950/950/270 951/951/270
f 949/949/270 951/951/270 952/952/270
f 953/953/271 954/954/271 955/955/271
f 953/953/271 955/955/271 956/956/271
f 957/957/272 958/958/272 959/959/272
f 957/957/272 959/959/272 960/960/272
f 961/961/273 962/962/273 963/963/273
f 961/961/273 963/963/273 964/964/273
f 965/965/274 966/966/274 967/967/274
f 965/965/274 967/967/274 968/968/274
f 969/969/275 970/970/275 971/971/275
f 969/969/275 971/971/275 972/972/275
f 973/973/276 974/974/276 975/975/276
f 973/973/276 975/975/276 976/976/276
f 977/977/277 978/978/277 979/979/277
f 977/977/277 979/979/277 980/980/277
f 981/981/278 982/982/278 983/983/278
f 981/981/278 983/983/278 984/984/278
f 985/985/279 986/986/279 987/987/279
f 985/985/279 987/987/279 988/988/279
f 989/989/280 990/990/280 991/991/280
f 989/989/280 991/991/280 992/992/280
f 993/993/281 994/994/281 995/995/281
f 993/993/281 995/995/281 996/996/281
f 997/997/282 998/998/282 999/999/282
f 997/997/282 999/999/282 1000/1000/282
f 1001/1001/283 1002/1002/283 1003/1003/283
f 1001/1001/283 1003/1003/283 1004/1004/283
f 1005/1005/284 1006/1006/284 1007/1007/284
f 1005/1005/284 1007/1007/284 1008/1008/284
f 1009/1009/285 1010/1010/285 1011/1011/285
f 1009/1009/285 1011/1011/285 1012/1012/285
f 1013/1013/286 1014/1014/286 1015/1015/286
f 1013/1013/286 1015/1015/286 1016/1016/286
f 1017/1017/287 1018/1018/287 1019/1019/287
f 1017/1017/287 1019/1019/287 1020/1020/287
f 1021/1021/288 1022/1022/288 1023/1023/288
f 1021/1021/288 1023/1023/288 1024/1024/288
f 1025/1025/289 1026/1026/289 1027/1027/289
f 1025/1025/289 1027/1027/289 1028/1028/289
f 1029/1029/290 1030/1030/290 1031/1031/290
f 1029/1029/290 1031/1031/290 1032/1032/290
f 1033/1033/291 1034/1034/291 1035/1035/291
f 1033/1033/291 1035/1035/291 1036/1036/291
f 1037/1037/292 1038/1038/292 1039/1039/292
f 1037/1037/292 1039/1039/292 1040/1040/292
f 1041/1041/293 1042/1042/293 1043/1043/293
f 1041/1041/293 1043/1043/293 1044/1044/293
f 1045/1045/294 1046/1046/294 1047/1047/294
f 1045/1045/294 1047/1047/294 1048/1048/294
f 1049/1049/295 1050/1050/295 1051/1051/295
f 1049/1049/295 1051/1051/295 1052/1052/295
f 1053/1053/296 1054/1054/296 1055/1055/296
f 1053/1053/296 1055/1055/296 1056/1056/296
f 1057/1057/297 1058/1058/297 1059/1059/297
f 1057/1057/297 1059/1059/297 1060/1060/297
f 1061/1061/298 1062/1062/298 1063/1063/298
f 1061/1061/298 1063/1063/298 1064/1064/298
f 1065/1065/299 1066/1066/299 1067/1067/299
f 1065/1065/299 1067/1067/299 1068/1068/299
f 1069/1069/300 1070/1070/300 1071/1071/300
f 1069/1069/300 1071/1071/300 1072/1072/300
f 1073/1073/301 1074/1074/301 1075/1075/301
f 1073/1073/301 1075/1075/301 1076/1076/301
f 1077/1077/302 1078/1078/302 1079/1079/302
f 1077/1077/302 1079/1079/302 1080/1080/302
f 1081/1081/303 1082/1082/303 1083/1083/303
f 1081/1081/303 1083/1083/303 1084/1084/303
f 1085/1085/304 1086/1086/304 1087/1087/304
f 1085/1085/304 1087/1087/304 1088/1088/304
f 1089/1089/305 1090/1090/305 1091/1091/305
f 1089/1089/305 1091/1091/305 1092/1092/305
f 1093/1093/306 1094/1094/306 1095/1095/306
f 1093/1093/306 1095/1095/306 1096/1096/306
f 1097/1097/307 1098/1098/307 1099/1099/307
f 1097/1097/307 1099/1099/307 1100/1100/307
f 1101/1101/308 1102/1102/308 1103/1103/308
f 1101/1101/308 1103/1103/308 1104/1104/308
f 1105/1105/309 1106/1106/309 1107/1107/309
f 1105/1105/309 1107/1107/309 1108/1108/309
f 1109/1109/310 1110/1110/310 1111/1111/310
f 1109/1109/310 1111/1111/310 1112/1112/310
f 1113/1113/311 1114/1114/311 1115/1115/311
f 1113/1113/311 1115/1115/311 1116/1116/311
f 1117/1117/312 1118/1118/312 1119/1119/312
f 1117/1117/312 1119/1119/312 1120/1120/312
f 1121/1121/313 1122/1122/313 1123/1123/313
f 1121/1121/313 1123/1123/313 1124/1124/313
f 1125/1125/314 1126/1126/314 1127/1127/314
f 1125/1125/314 1127/1127/314 1128/1128/314
f 1129/1129/315 1130/1130/315 1131/1131/315
f 1129/1129/315 1131/1131/315 1132/1132/315
f 1133/1133/316 1134/1134/316 1135/1135/316
f 1133/1133/316 1135/1135/316 1136/1136/316
f 1137/1137/317 1138/1138/317 1139/1139/317
f 1137/1137/317 1139/1139/317 1140/1140/317
f 1141/1141/318 1142/1142/318 1143/1143/318
f 1141/1141/318 1143/1143/318 1144/1144/318
f 1145/1145/319 1146/1146/319 1147/1147/319
f 1145/1145/319 1147/1147/319 1148/1148/319
f 1149/1149/320 1150/1150/320 1151/1151/320
f 1149/1149/320 1151/1151/320 1152/1152/320
f 1153/1153/321 1154/1154/321 1155/1155/321
f 1153/1153/321 1155/1155/321 1156/1156/321
f 1157/1157/322 1158/1158/322 1159/1159/322
f 1157/1157/322 1159/1159/322 1160/1160/322
f 1161/1161/323 1162/1162/323 1163/1163/323
f 1161/1161/323 1163/1163/323 1164/1164/323
f 1165/1165/324 1166/1166/324 1167/1167/324
f 1165/1165/324 1167/1167/324 1168/1168/324
f 1169/1169/325 1170/1170/325 1171/1171/325
f 1169/1169/325 1171/1171/325 1172/1172/325
f 1173/1173/326 1174/1174/326 1175/1175/326
f 1173/1173/326 1175/1175/326 1176/1176/326
f 1177/1177/327 1178/1178/327 1179/1179/327
f 1177/1177/327 1179/1179/327 1180/1180/327
f 1181/1181/328 1182/1182/328 1183/1183/328
f 1181/1181/328 1183/1183/328 1184/1184/328
f 1185/1185/329 1186/1186/329 1187/1187/329
f 1185/1185/329 1187/1187/329 1188/1188/329
f 1189/1189/330 1190/1190/330 1191/1191/330
f 1189/1189/330 1191/1191/330 1192/1192/330
f 1193/1193/331 1194/1194/331 1195/1195/331
f 1193/1193/331 1195/1195/331 1196/1196/331
f 1197/1197/332 1198/1198/332 1199/1199/332
f 1197/1197/332 1199/1199/332 1200/1200/332
f 1201/1201/333 1202/1202/333 1203/1203/333
f 1201/1201/333 1203/1203/333 1204/1204/333
f 1205/1205/334 1206/1206/334 1207/1207/334
f 1205/1205/334 1207/1207/334 1208/1208/334
f 1209/1209/335 1210/1210/335 1211/1211/335
f 1209/1209/335 1211/1211/335 1212/1212/335
f 1213/1213/336 1214/1214/336 1215/1215/336
f 1213/1213/336 1215/1215/336 1216/1216/336
f 1217/1217/337 1218/1218/337 1219/1219/337
f 1217/1217/337 1219/1219/337 1220/1220/337
f 1221/1221/338 1222/1222/338 1223/1223/338
f 1221/1221/338 1223/1223/338 1224/1224/338
f 1225/1225/339 1226/1226/339 1227/1227/339
f 1225/1225/339 1227/1227/339 1228/1228/339
f 1229/1229/340 1230/1230/340 1231/1231/340
f 1229/1229/340 1231/1231/340 1232/1232/340
f 1233/1233/341 1234/1234/341 1235/1235/341
f 1233/1233/341 1235/1235/341 1236/1236/341
f 1237/1237/342 1238/1238/342 1239/1239/342
f 1237/1237/342 1239/1239/342 1240/1240/342
f 1241/1241/343 1242/1242/343 1243/1243/343
f 1241/1241/343 1243/1243/343 1244/1244/343
f 1245/1245/344 1246/1246/344 1247/1247/344
f 1245/1245/344 1247/1247/344 1248/1248/344
f 1249/1249/345 1250/1250/345 1251/1251/345
f 1249/1249/345 1251/1251/345 1252/1252/345
f 1253/1253/346 1254/1254/346 1255/1255/346
f 1253/1253/346 1255/1255/346 1256/1256/346
f 1257/1257/347 1258/1258/347 1259/1259/347
f 1257/1257/347 1259/1259/347 1260/1260/347
f 1261/1261/348 1262/1262/348 1263/1263/348
f 1261/1261/348 1263/1263/348 1264/1264/348
f 1265/1265/349 1266/1266/349 1267/1267/349
f 1265/1265/349 1267/1267/349 1268/1268/349
f 1269/1269/350 1270/1270/350 1271/1271/350
f 1269/1269/350 1271/1271/350 1272/1272/350
f 1273/1273/351 1274/1274/351 1275/1275/351
f 1273/1273/351 1275/1275/351 1276/1276/351
f 1277/1277/352 1278/1278/352 1279/1279/352
f 1277/1277/352 1279/1279/352 1280/1280/352
f 1281/1281/353 1282/1282/353 1283/1283/353
f 1281/1281/353 1283/1283/353 1284/1284/353
f 1285/1285/354 1286/1286/354 1287/1287/354
f 1285/1285/354 1287/1287/354 1288/1288/354
f 1289/1289/355 1290/1290/355 1291/1291/355
f 1289/1289/355 1291/1291/355 1292/1292/355
f 1293/1293/356 1294/1294/356 1295/1295/356
f 1293/1293/356 1295/1295/356 1296/1296/356
f 1297/1297/357 1298/1298/357 1299/1299/357
f 1297/1297/357 1299/1299/357 1300/1300/357
f 1301/1301/358 1302/1302/358 1303/1303/358
f 1301/1301/358 1303/1303/358 1304/1304/358
f 1305/1305/359 1306/1306/359 1307/1307/359
f 1305/1305/359 1307/1307/359 1308/1308/359
f 1309/1309/360 1310/1310/360 1311/1311/360
f 1309/1309/360 1311/1311/360 1312/1312/360
f 1313/1313/361 1314/1314/361 1315/1315/361
f 1313/1313/361 1315/1315/361 1316/1316/361
f 1317/1317/362 1318/1318/362 1319/1319/362
f 1317/1317/362 1319/1319/362 1320/1320/362
f 1321/1321/363 1322/1322/363 1323/1323/363
f 1321/1321/363 1323/1323/363 1324/1324/363
f 1325/1325/364 1326/1326/364 1327/1327/364
f 1325/1325/364 1327/1327/364 1328/1328/364
f 1329/1329/365 1330/1330/365 1331/1331/365
f 1329/1329/365 1331/1331/365 1332/1332/365
f 1333/1333/366 1334/1334/366 1335/1335/366
f 1333/1333/366 1335/1335/366 1336/1336/366
f 1337/1337/367 1338/1338/367 1339/1339/367
f 1337/1337/367 1339/1339/367 1340/1340/367
f 1341/1341/368 1342/1342/368 1343/1343/368
f 1341/1341/368 1343/1343/368 1344/1344/368
f 1345/1345/369 1346/1346/369 1347/1347/369
f 1345/1345/369 1347/1347/369 1348/1348/369
f 1349/1349/370 1350/1350/370 1351/1351/370
f 1349/1349/370 1351/1351/370 1352/1352/370
f 1353/1353/371 1354/1354/371 1355/1355/371
f 1353/1353/371 1355/1355/371 1356/1356/371
f 1357/1357/372 1358/1358/372 1359/1359/372
f 1357/1357/372 1359/1359/372 1360/1360/372
f 1361/1361/373 1362/1362/373 1363/1363/373
f 1361/1361/373 1363/1363/373 1364/1364/373
f 1365/1365/374 1366/1366/374 1367/1367/374
f 1365/1365/374 1367/1367/374 1368/1368/374
f 1369/1369/375 1370/1370/375 1371/1371/375
f 1369/1369/375 1371/1371/375 1372/1372/375
f 1373/1373/376 1374/1374/376 1375/1375/376
f 1373/1373/376 1375/1375/376 1376/1376/376
f 1377/1377/377 1378/1378/377 1379/1379/377
f 1377/1377/377 1379/1379/377 1380/1380/377
f 1381/1381/378 1382/1382/378 1383/1383/378
f 1381/1381/378 1383/1383/378 1384/1384/378
f 1385/1385/379 1386/1386/379 1387/1387/379
f 1385/1385/379 1387/1387/379 1388/1388/379
f 1389/1389/380 1390/1390/380 1391/1391/380
f 1389/1389/380 1391/1391/380 1392/1392/380
f 1393/1393/381 1394/1394/381 1395/1395/381
f 1393/1393/381 1395/1395/381 1396/1396/381
f 1397/1397/382 1398/1398/382 1399/1399/382
f 1397/1397/382 1399/1399/382 1400/1400/382
f 1401/1401/383 1402/1402/383 1403/1403/383
f 1401/1401/383 1403/1403/383 1404/1404/383
f 1405/1405/384 1406/1406/384 1407/1407/384
f 1405/1405/384 1407/1407/384 1408/1408/384
f 1409/1409/385 1410/1410/385 1411/1411/385
f 1409/1409/385 1411/1411/385 1412/1412/385
f 1413/1413/386 1414/1414/386 1415/1415/386
f 1413/1413/386 1415/1415/386 1416/1416/386
f 1417/1417/387 1418/1418/387 1419/1419/387
f 1417/1417/387 1419/1419/387 1420/1420/387
f 1421/1421/388 1422/1422/388 1423/1423/388
f 1421/1421/388 1423/1423/388 1424/1424/388
f 1425/1425/389 1426/1426/389 1427/1427/389
f 1425/1425/389 1427/1427/389 1428/1428/389
f 1429/1429/390 1430/1430/390 1431/1431/390
f 1429/1429/390 1431/1431/390 1432/1432/390
f 1433/1433/391 1434/1434/391 1435/1435/391
f 1433/1433/391 1435/1435/391 1436/1436/391
f 1437/1437/392 1438/1438/392 1439/1439/392
f 1437/1437/392 1439/1439/392 1440/1440/392
